<svg xmlns="http://www.w3.org/2000/svg" viewBox="0 0 1600 1200" font-family="Inter, system-ui, -apple-system, sans-serif">
  <defs>
    <linearGradient id="bg" x1="0" y1="0" x2="0" y2="1">
      <stop offset="0%" stop-color="#061322"/>
      <stop offset="100%" stop-color="#0a1f30"/>
    </linearGradient>
    <linearGradient id="ac" x1="0" y1="0" x2="1" y2="0">
      <stop offset="0%" stop-color="#1bb1d4"/>
      <stop offset="100%" stop-color="#5dd3df"/>
    </linearGradient>
  </defs>
  <rect width="1600" height="1200" fill="url(#bg)"/>

  <rect x="0" y="0" width="1600" height="56" fill="#0b1d2d"/>
  <line x1="0" y1="56" x2="1600" y2="56" stroke="#142c41"/>
  <rect x="20" y="16" width="22" height="22" rx="6" fill="url(#ac)"/>
  <text x="50" y="34" font-size="15" font-weight="700" fill="#ffffff">MoAssist</text>
  <text x="160" y="34" font-size="12" fill="#7a90a8">Inbox · 247 conversations · 12 unread</text>
  <rect x="1380" y="16" width="120" height="24" rx="12" fill="#1f3a2c"/>
  <text x="1394" y="32" font-size="11" font-weight="700" fill="#86efac">● 3 teammates online</text>
  <circle cx="1564" cy="28" r="14" fill="#1bb1d4"/>
  <text x="1556" y="32" font-size="11" font-weight="700" fill="#0b1d2d">AB</text>

  <rect x="0" y="56" width="200" height="1144" fill="#0b1d2d"/>
  <line x1="200" y1="56" x2="200" y2="1200" stroke="#142c41"/>
  <text x="20" y="100" font-size="11" font-weight="700" fill="#7a90a8" letter-spacing="0.6">VIEWS</text>
  <g font-size="13">
    <rect x="14" y="118" width="172" height="32" rx="9" fill="#112b3f"/>
    <text x="28" y="138" font-weight="600" fill="#def1f2">All conversations</text>
    <text x="160" y="138" font-size="11" font-weight="700" fill="#5dd3df">247</text>
    <text x="28" y="178" fill="#94a8bd">Unassigned</text>
    <text x="166" y="178" font-size="11" font-weight="700" fill="#fda4af">12</text>
    <text x="28" y="218" fill="#94a8bd">Assigned to me</text>
    <text x="166" y="218" font-size="11" font-weight="700" fill="#ffffff">8</text>
    <text x="28" y="258" fill="#94a8bd">AI handling</text>
    <text x="166" y="258" font-size="11" font-weight="700" fill="#5dd3df">189</text>
    <text x="28" y="298" fill="#94a8bd">Snoozed</text>
    <text x="166" y="298" font-size="11" font-weight="700" fill="#7a90a8">14</text>
    <text x="28" y="338" fill="#94a8bd">Closed today</text>
    <text x="160" y="338" font-size="11" font-weight="700" fill="#7a90a8">412</text>
  </g>
  <text x="20" y="384" font-size="11" font-weight="700" fill="#7a90a8" letter-spacing="0.6">TAGS</text>
  <g font-size="13" fill="#94a8bd">
    <text x="28" y="412">📦 Shipping</text>
    <text x="28" y="442">↻ Returns</text>
    <text x="28" y="472">💰 Pricing</text>
    <text x="28" y="502">🛒 Cart issues</text>
    <text x="28" y="532">⭐ VIP</text>
  </g>

  <rect x="200" y="56" width="420" height="1144" fill="#08182a"/>
  <line x1="620" y1="56" x2="620" y2="1200" stroke="#142c41"/>
  <rect x="216" y="80" width="388" height="40" rx="20" fill="#10263a" stroke="#1a334a"/>
  <text x="234" y="105" font-size="12" fill="#7a90a8">🔍  Search by name, email, message…</text>
  <text x="216" y="148" font-size="11" font-weight="700" fill="#7a90a8" letter-spacing="0.6">SORTED BY · NEWEST FIRST</text>

  <g font-size="13">
    <rect x="216" y="168" width="388" height="96" rx="14" fill="#10263a" stroke="#5dd3df" stroke-width="2"/>
    <circle cx="240" cy="200" r="16" fill="#3a2e1a"/>
    <text x="232" y="205" font-size="11" font-weight="700" fill="#fcd34d">MO</text>
    <text x="266" y="194" font-weight="700" fill="#ffffff">Marcus Olsen</text>
    <text x="568" y="194" font-size="10" fill="#7a90a8" text-anchor="end">2m</text>
    <text x="266" y="214" font-size="11" fill="#94a8bd">Bulk pricing for 200 units of the linen…</text>
    <rect x="232" y="226" width="60" height="20" rx="10" fill="#3a2e1a"/>
    <text x="244" y="240" font-size="10" font-weight="700" fill="#fcd34d">HUMAN</text>
    <rect x="298" y="226" width="78" height="20" rx="10" fill="#0e3247"/>
    <text x="310" y="240" font-size="10" font-weight="700" fill="#5dd3df">Pricing</text>
    <circle cx="582" cy="236" r="6" fill="#5dd3df"/>

    <rect x="216" y="276" width="388" height="96" rx="14" fill="#10263a" stroke="#1a334a"/>
    <circle cx="240" cy="308" r="16" fill="#3b1f1f"/>
    <text x="232" y="313" font-size="11" font-weight="700" fill="#fda4af">EM</text>
    <text x="266" y="302" font-weight="700" fill="#ffffff">Emma Lindqvist</text>
    <text x="568" y="302" font-size="10" fill="#7a90a8" text-anchor="end">5m</text>
    <text x="266" y="322" font-size="11" fill="#94a8bd">Done ✓ — address updated to Sveavägen 44…</text>
    <rect x="232" y="334" width="46" height="20" rx="10" fill="#0e3247"/>
    <text x="244" y="348" font-size="10" font-weight="700" fill="#5dd3df">AI</text>
    <rect x="284" y="334" width="86" height="20" rx="10" fill="#0e3247"/>
    <text x="296" y="348" font-size="10" font-weight="700" fill="#5dd3df">📦 Shipping</text>

    <rect x="216" y="384" width="388" height="96" rx="14" fill="#10263a" stroke="#1a334a"/>
    <circle cx="240" cy="416" r="16" fill="#1f3a2c"/>
    <text x="232" y="421" font-size="11" font-weight="700" fill="#86efac">JT</text>
    <text x="266" y="410" font-weight="700" fill="#ffffff">Julia Thomsen</text>
    <text x="568" y="410" font-size="10" fill="#7a90a8" text-anchor="end">12m</text>
    <text x="266" y="430" font-size="11" fill="#94a8bd">Got the return label — thank you so much!</text>
    <rect x="232" y="442" width="46" height="20" rx="10" fill="#0e3247"/>
    <text x="244" y="456" font-size="10" font-weight="700" fill="#5dd3df">AI</text>
    <rect x="284" y="442" width="78" height="20" rx="10" fill="#0e3247"/>
    <text x="296" y="456" font-size="10" font-weight="700" fill="#5dd3df">↻ Returns</text>

    <rect x="216" y="492" width="388" height="96" rx="14" fill="#10263a" stroke="#1a334a"/>
    <circle cx="240" cy="524" r="16" fill="#241e3e"/>
    <text x="232" y="529" font-size="11" font-weight="700" fill="#c4b5fd">PB</text>
    <text x="266" y="518" font-weight="700" fill="#ffffff">Pia Bergström</text>
    <text x="568" y="518" font-size="10" fill="#7a90a8" text-anchor="end">18m</text>
    <text x="266" y="538" font-size="11" fill="#94a8bd">Perfect, the M sounds right. Adding to cart 🛒</text>
    <rect x="232" y="550" width="46" height="20" rx="10" fill="#0e3247"/>
    <text x="244" y="564" font-size="10" font-weight="700" fill="#5dd3df">AI</text>
    <rect x="284" y="550" width="78" height="20" rx="10" fill="#1f3a2c"/>
    <text x="296" y="564" font-size="10" font-weight="700" fill="#86efac">✓ Closed</text>

    <rect x="216" y="600" width="388" height="96" rx="14" fill="#10263a" stroke="#1a334a"/>
    <circle cx="240" cy="632" r="16" fill="#0e3247"/>
    <text x="232" y="637" font-size="11" font-weight="700" fill="#5dd3df">SK</text>
    <text x="266" y="626" font-weight="700" fill="#ffffff">Sara Korhonen</text>
    <text x="568" y="626" font-size="10" fill="#7a90a8" text-anchor="end">24m</text>
    <text x="266" y="646" font-size="11" fill="#94a8bd">"15% off code sent to your inbox 📧"</text>
    <rect x="232" y="658" width="46" height="20" rx="10" fill="#0e3247"/>
    <text x="244" y="672" font-size="10" font-weight="700" fill="#5dd3df">AI</text>
    <rect x="284" y="658" width="60" height="20" rx="10" fill="#1f3a2c"/>
    <text x="296" y="672" font-size="10" font-weight="700" fill="#86efac">LEAD</text>

    <rect x="216" y="708" width="388" height="96" rx="14" fill="#10263a" stroke="#1a334a"/>
    <circle cx="240" cy="740" r="16" fill="#3b1f1f"/>
    <text x="232" y="745" font-size="11" font-weight="700" fill="#fda4af">RH</text>
    <text x="266" y="734" font-weight="700" fill="#ffffff">Rasmus Holm</text>
    <text x="568" y="734" font-size="10" fill="#7a90a8" text-anchor="end">31m</text>
    <text x="266" y="754" font-size="11" fill="#94a8bd">Norway shipping confirmed, 4–6 days, €8</text>
    <rect x="232" y="766" width="46" height="20" rx="10" fill="#0e3247"/>
    <text x="244" y="780" font-size="10" font-weight="700" fill="#5dd3df">AI</text>
    <rect x="284" y="766" width="86" height="20" rx="10" fill="#0e3247"/>
    <text x="296" y="780" font-size="10" font-weight="700" fill="#5dd3df">📦 Shipping</text>

    <rect x="216" y="816" width="388" height="96" rx="14" fill="#10263a" stroke="#1a334a"/>
    <circle cx="240" cy="848" r="16" fill="#3b1f1f"/>
    <text x="232" y="853" font-size="11" font-weight="700" fill="#fda4af">LK</text>
    <text x="266" y="842" font-weight="700" fill="#ffffff">Lisa Knutsen</text>
    <text x="568" y="842" font-size="10" fill="#7a90a8" text-anchor="end">42m</text>
    <text x="266" y="862" font-size="11" fill="#94a8bd">"Wrong size delivered — what now?"</text>
    <rect x="232" y="874" width="78" height="20" rx="10" fill="#3a2e1a"/>
    <text x="244" y="888" font-size="10" font-weight="700" fill="#fcd34d">↑ Escalated</text>
    <rect x="316" y="874" width="78" height="20" rx="10" fill="#0e3247"/>
    <text x="328" y="888" font-size="10" font-weight="700" fill="#5dd3df">↻ Returns</text>

    <rect x="216" y="924" width="388" height="80" rx="14" fill="#10263a" opacity="0.6"/>
    <circle cx="240" cy="956" r="16" fill="#0e3247"/>
    <text x="232" y="961" font-size="11" font-weight="700" fill="#5dd3df">FW</text>
    <text x="266" y="950" font-weight="700" fill="#ffffff">Fredrik W.</text>
    <text x="568" y="950" font-size="10" fill="#7a90a8" text-anchor="end">1h</text>
    <text x="266" y="970" font-size="11" fill="#94a8bd">"Closed — order #4790 delivered ✓"</text>
  </g>

  <text x="640" y="98" font-size="20" font-weight="700" fill="#ffffff">Marcus Olsen</text>
  <rect x="800" y="80" width="120" height="28" rx="14" fill="#3a2e1a"/>
  <text x="816" y="98" font-size="11" font-weight="700" fill="#fcd34d">● HUMAN — You</text>
  <rect x="934" y="80" width="118" height="28" rx="14" fill="#0e3247"/>
  <text x="952" y="98" font-size="11" font-weight="700" fill="#5dd3df">📞 Wholesale lead</text>
  <text x="640" y="120" font-size="12" fill="#94a8bd">marcus.olsen@gmail.com · Oslo, Norway · returning customer (3 orders)</text>

  <rect x="1140" y="76" width="36" height="36" rx="10" fill="#10263a" stroke="#1a334a"/>
  <text x="1150" y="100" font-size="13">⏱</text>
  <rect x="1184" y="76" width="36" height="36" rx="10" fill="#10263a" stroke="#1a334a"/>
  <text x="1196" y="100" font-size="13">🏷</text>
  <rect x="1228" y="76" width="98" height="36" rx="10" fill="#10263a" stroke="#1a334a"/>
  <text x="1242" y="100" font-size="12" fill="#94a8bd">Hand to AI ↩</text>
  <rect x="1334" y="76" width="98" height="36" rx="10" fill="#5dd3df"/>
  <text x="1356" y="100" font-size="12" font-weight="600" fill="#0b1d2d">Resolve ✓</text>

  <line x1="640" y1="148" x2="1430" y2="148" stroke="#142c41"/>

  <g>
    <text x="1035" y="180" font-size="10" fill="#7a90a8" text-anchor="middle">Today, 18:36</text>

    <rect x="640" y="196" width="380" height="48" rx="14" fill="#10263a"/>
    <text x="660" y="226" font-size="13" fill="#def1f2">Hi! Do you offer bulk discounts?</text>

    <rect x="640" y="262" width="500" height="100" rx="16" fill="#0e3247"/>
    <circle cx="664" cy="288" r="12" fill="#5dd3df"/>
    <text x="660" y="293" font-size="13" fill="#0b1d2d">🤖</text>
    <text x="688" y="284" font-size="11" font-weight="700" fill="#5dd3df">Aria · AI</text>
    <text x="660" y="316" font-size="13" fill="#def1f2">For wholesale or 50+ units, I'll loop in our</text>
    <text x="660" y="336" font-size="13" fill="#def1f2">team to get you a custom quote. One sec…</text>
    <rect x="660" y="346" width="200" height="22" rx="11" fill="#0b1d2d" stroke="#1a334a"/>
    <text x="676" y="361" font-size="10" font-weight="700" fill="#5dd3df">↑ Escalating to Sales</text>

    <rect x="640" y="384" width="780" height="44" rx="14" fill="#3a2e1a" stroke="#7a5108"/>
    <text x="660" y="412" font-size="12" fill="#fcd34d">⤴  <tspan font-weight="700">Aria handed this to you</tspan> · context loaded · suggested reply ready below</text>

    <rect x="640" y="446" width="420" height="48" rx="14" fill="#10263a"/>
    <text x="660" y="476" font-size="13" fill="#def1f2">Yeah I need 200 units of the Linen Dress.</text>

    <rect x="640" y="512" width="540" height="100" rx="16" fill="#5dd3df"/>
    <circle cx="664" cy="538" r="12" fill="#0b1d2d"/>
    <text x="657" y="543" font-size="11" font-weight="700" fill="#5dd3df">AB</text>
    <text x="688" y="534" font-size="11" font-weight="700" fill="#0b1d2d">Alex (you) · Sales</text>
    <text x="660" y="566" font-size="13" fill="#0b1d2d">Hi Marcus! For 200 units we can do 18% off list.</text>
    <text x="660" y="586" font-size="13" fill="#0b1d2d">Color split is flexible. Want me to email you a</text>
    <text x="660" y="606" font-size="13" fill="#0b1d2d">quick quote PDF + lead time?</text>

    <rect x="640" y="630" width="280" height="48" rx="14" fill="#10263a"/>
    <text x="660" y="660" font-size="13" fill="#def1f2">Yes please — send to this email.</text>

    <rect x="640" y="696" width="780" height="118" rx="16" fill="#10263a" stroke="#5dd3df" stroke-dasharray="6 4"/>
    <text x="660" y="724" font-size="11" font-weight="700" fill="#5dd3df" letter-spacing="0.6">SUGGESTED REPLY · ARIA DRAFT</text>
    <text x="660" y="754" font-size="13" fill="#def1f2">"Quote sent to marcus.olsen@gmail.com just now.</text>
    <text x="660" y="774" font-size="13" fill="#def1f2">Lead time is 12 business days. Anything else I can</text>
    <text x="660" y="794" font-size="13" fill="#def1f2">help arrange — color split, custom labels, expedited shipping?"</text>
    <rect x="1280" y="780" width="124" height="26" rx="13" fill="#5dd3df"/>
    <text x="1296" y="797" font-size="11" font-weight="700" fill="#0b1d2d">Send draft →</text>

    <rect x="640" y="836" width="780" height="60" rx="14" fill="#2e260e" stroke="#5e4a14"/>
    <text x="660" y="862" font-size="11" font-weight="700" fill="#fcd34d" letter-spacing="0.6">🔒 INTERNAL NOTE — only your team sees this</text>
    <text x="660" y="884" font-size="12" fill="#fcd34d">Marcus is reordering — last bulk was 80 units, 8% margin. Worth approving 18%.</text>
  </g>

  <rect x="640" y="918" width="780" height="180" rx="18" fill="#0b1d2d" stroke="#1a334a"/>
  <text x="660" y="944" font-size="11" font-weight="700" fill="#94a8bd" letter-spacing="0.6">REPLY AS YOU · OR HAND BACK TO ARIA</text>
  <rect x="660" y="956" width="86" height="22" rx="11" fill="#0e3247"/>
  <text x="676" y="971" font-size="10" font-weight="700" fill="#5dd3df">B  i  ⊜  ⌘ K</text>
  <text x="660" y="1010" font-size="13" fill="#def1f2">Type your message…</text>
  <rect x="660" y="1054" width="140" height="32" rx="10" fill="#10263a"/>
  <text x="676" y="1075" font-size="11" fill="#94a8bd">📎 Attach file</text>
  <rect x="810" y="1054" width="140" height="32" rx="10" fill="#10263a"/>
  <text x="826" y="1075" font-size="11" fill="#94a8bd">⌐ Save as macro</text>
  <rect x="1280" y="1054" width="120" height="32" rx="10" fill="#5dd3df"/>
  <text x="1314" y="1075" font-size="11" font-weight="700" fill="#0b1d2d">Send reply ➤</text>

  <rect x="1430" y="76" width="160" height="1100" rx="20" fill="#0b1d2d" stroke="#1a334a"/>
  <text x="1448" y="106" font-size="11" font-weight="700" fill="#94a8bd" letter-spacing="0.6">CUSTOMER</text>
  <circle cx="1510" cy="148" r="22" fill="#3a2e1a"/>
  <text x="1499" y="154" font-size="13" font-weight="700" fill="#fcd34d">MO</text>
  <text x="1510" y="190" font-size="13" font-weight="700" fill="#ffffff" text-anchor="middle">Marcus Olsen</text>
  <text x="1510" y="208" font-size="11" fill="#94a8bd" text-anchor="middle">Oslo · NO</text>

  <line x1="1448" y1="232" x2="1572" y2="232" stroke="#142c41"/>
  <text x="1448" y="258" font-size="10" font-weight="700" fill="#7a90a8">LIFETIME VALUE</text>
  <text x="1448" y="282" font-size="18" font-weight="700" fill="#ffffff">€642</text>

  <text x="1448" y="318" font-size="10" font-weight="700" fill="#7a90a8">ORDERS</text>
  <text x="1448" y="342" font-size="18" font-weight="700" fill="#ffffff">3</text>

  <text x="1448" y="378" font-size="10" font-weight="700" fill="#7a90a8">FIRST SEEN</text>
  <text x="1448" y="400" font-size="12" fill="#ffffff">Aug 2024</text>

  <line x1="1448" y1="424" x2="1572" y2="424" stroke="#142c41"/>
  <text x="1448" y="450" font-size="11" font-weight="700" fill="#94a8bd" letter-spacing="0.6">RECENT ORDERS</text>

  <rect x="1448" y="464" width="124" height="56" rx="10" fill="#10263a"/>
  <text x="1460" y="486" font-size="11" font-weight="700" fill="#ffffff">#4612 · €298</text>
  <text x="1460" y="504" font-size="10" fill="#94a8bd">delivered Mar 12</text>

  <rect x="1448" y="528" width="124" height="56" rx="10" fill="#10263a"/>
  <text x="1460" y="550" font-size="11" font-weight="700" fill="#ffffff">#4231 · €184</text>
  <text x="1460" y="568" font-size="10" fill="#94a8bd">delivered Jan 28</text>

  <rect x="1448" y="592" width="124" height="56" rx="10" fill="#10263a"/>
  <text x="1460" y="614" font-size="11" font-weight="700" fill="#ffffff">#3840 · €160</text>
  <text x="1460" y="632" font-size="10" fill="#94a8bd">delivered Nov 04</text>

  <line x1="1448" y1="676" x2="1572" y2="676" stroke="#142c41"/>
  <text x="1448" y="702" font-size="11" font-weight="700" fill="#94a8bd" letter-spacing="0.6">TAGS</text>
  <rect x="1448" y="714" width="58" height="22" rx="11" fill="#0e3247"/>
  <text x="1460" y="729" font-size="10" font-weight="700" fill="#5dd3df">VIP</text>
  <rect x="1512" y="714" width="60" height="22" rx="11" fill="#0e3247"/>
  <text x="1524" y="729" font-size="10" font-weight="700" fill="#5dd3df">B2B</text>
  <rect x="1448" y="744" width="92" height="22" rx="11" fill="#0e3247"/>
  <text x="1460" y="759" font-size="10" font-weight="700" fill="#5dd3df">Wholesale</text>

  <line x1="1448" y1="788" x2="1572" y2="788" stroke="#142c41"/>
  <text x="1448" y="814" font-size="11" font-weight="700" fill="#94a8bd" letter-spacing="0.6">AI ACTIONS TAKEN</text>
  <text x="1448" y="838" font-size="11" fill="#def1f2">✓ Identified intent</text>
  <text x="1448" y="858" font-size="11" fill="#def1f2">✓ Pulled order history</text>
  <text x="1448" y="878" font-size="11" fill="#def1f2">✓ Detected B2B inquiry</text>
  <text x="1448" y="898" font-size="11" fill="#def1f2">✓ Routed to Sales (you)</text>
</svg>
