<svg width="1200" height="900" viewBox="0 0 1200 900" fill="none" xmlns="http://www.w3.org/2000/svg">
  <defs>
    <linearGradient id="b1" x1="0" y1="0" x2="1200" y2="900" gradientUnits="userSpaceOnUse">
      <stop stop-color="#071B2D"/>
      <stop offset="1" stop-color="#082F49"/>
    </linearGradient>
    <linearGradient id="message" x1="0" y1="0" x2="1" y2="1">
      <stop stop-color="#14B8A6"/>
      <stop offset="1" stop-color="#0EA5E9"/>
    </linearGradient>
  </defs>

  <rect width="1200" height="900" rx="38" fill="url(#b1)"/>
  <rect x="58" y="58" width="1084" height="784" rx="32" fill="#F8FAFC" fill-opacity="0.92"/>

  <rect x="102" y="108" width="320" height="684" rx="24" fill="#0F172A" fill-opacity="0.96"/>
  <rect x="128" y="138" width="268" height="40" rx="10" fill="#1E293B"/>
  <rect x="128" y="198" width="268" height="104" rx="14" fill="#1F3145"/>
  <rect x="128" y="316" width="268" height="104" rx="14" fill="#1F3145"/>
  <rect x="128" y="434" width="268" height="104" rx="14" fill="#1F3145"/>

  <rect x="448" y="108" width="654" height="684" rx="24" fill="#FFFFFF"/>
  <rect x="482" y="142" width="186" height="22" rx="10" fill="#E2E8F0"/>
  <rect x="482" y="186" width="248" height="80" rx="18" fill="#EEF2FF"/>

  <rect x="482" y="290" width="390" height="76" rx="20" fill="#E2E8F0"/>
  <rect x="678" y="386" width="390" height="76" rx="20" fill="url(#message)"/>
  <rect x="482" y="482" width="462" height="76" rx="20" fill="#E2E8F0"/>
  <rect x="630" y="578" width="438" height="76" rx="20" fill="url(#message)"/>
  <rect x="482" y="674" width="586" height="74" rx="18" fill="#F1F5F9"/>
</svg>
