<svg xmlns="http://www.w3.org/2000/svg" viewBox="0 0 1600 1200" font-family="Inter, system-ui, -apple-system, sans-serif">
  <defs>
    <linearGradient id="bg" x1="0" y1="0" x2="0" y2="1">
      <stop offset="0%" stop-color="#061322"/>
      <stop offset="100%" stop-color="#0a1f30"/>
    </linearGradient>
    <linearGradient id="ac" x1="0" y1="0" x2="1" y2="0">
      <stop offset="0%" stop-color="#1bb1d4"/>
      <stop offset="100%" stop-color="#5dd3df"/>
    </linearGradient>
  </defs>
  <rect width="1600" height="1200" fill="url(#bg)"/>

  <rect x="0" y="0" width="1600" height="56" fill="#0b1d2d"/>
  <line x1="0" y1="56" x2="1600" y2="56" stroke="#142c41"/>
  <rect x="20" y="16" width="22" height="22" rx="6" fill="url(#ac)"/>
  <text x="50" y="34" font-size="15" font-weight="700" fill="#ffffff">MoAssist</text>
  <text x="160" y="34" font-size="12" fill="#7a90a8">Chatbots / Aria / Install</text>
  <circle cx="1564" cy="28" r="14" fill="#1bb1d4"/>
  <text x="1556" y="32" font-size="11" font-weight="700" fill="#0b1d2d">AB</text>

  <rect x="0" y="56" width="200" height="1144" fill="#0b1d2d"/>
  <line x1="200" y1="56" x2="200" y2="1200" stroke="#142c41"/>
  <g font-size="13" fill="#94a8bd">
    <text x="24" y="100">Overview</text>
    <text x="24" y="140">Conversations</text>
    <text x="24" y="180">Knowledge</text>
    <text x="24" y="220">Appearance</text>
    <text x="24" y="260">Behavior</text>
    <text x="24" y="300">Lead capture</text>
    <rect x="14" y="318" width="172" height="32" rx="9" fill="#112b3f"/>
    <text x="24" y="338" font-weight="600" fill="#def1f2">Install</text>
    <text x="24" y="378">Analytics</text>
  </g>

  <text x="240" y="118" font-size="28" font-weight="700" fill="#ffffff">Install Aria on your store</text>
  <text x="240" y="146" font-size="13" fill="#94a8bd">Live in under 5 minutes. Pick your platform — or paste one line into any website.</text>

  <rect x="240" y="180" width="1320" height="72" rx="18" fill="#5dd3df"/>
  <circle cx="276" cy="216" r="12" fill="#0b1d2d"/>
  <text x="271" y="221" font-size="14" fill="#5dd3df">✓</text>
  <text x="304" y="208" font-size="14" font-weight="700" fill="#0b1d2d">Aria is live on nordicbloom.store</text>
  <text x="304" y="232" font-size="12" fill="#0e3247">Detected widget on 218 pages · last ping 14 seconds ago · v2.4.1</text>
  <rect x="1340" y="196" width="100" height="40" rx="11" fill="#0b1d2d"/>
  <text x="1356" y="220" font-size="12" fill="#ffffff">Verify ↻</text>
  <rect x="1448" y="196" width="100" height="40" rx="11" fill="#0b1d2d"/>
  <text x="1466" y="220" font-size="12" font-weight="700" fill="#5dd3df">Preview ↗</text>

  <g>
    <rect x="240" y="284" width="200" height="86" rx="14" fill="#0b1d2d" stroke="#5dd3df" stroke-width="2"/>
    <text x="270" y="320" font-size="20">🛍️</text>
    <text x="304" y="318" font-size="14" font-weight="700" fill="#ffffff">Shopify</text>
    <text x="304" y="338" font-size="11" fill="#34d399">● Connected</text>
    <text x="304" y="354" font-size="10" fill="#94a8bd">Theme: Dawn 12.0</text>

    <rect x="456" y="284" width="200" height="86" rx="14" fill="#0b1d2d" stroke="#1a334a"/>
    <text x="486" y="320" font-size="20">🟪</text>
    <text x="520" y="318" font-size="14" font-weight="700" fill="#ffffff">WooCommerce</text>
    <text x="520" y="354" font-size="10" fill="#7a90a8">Plugin available</text>

    <rect x="672" y="284" width="200" height="86" rx="14" fill="#0b1d2d" stroke="#1a334a"/>
    <text x="702" y="320" font-size="20">🌐</text>
    <text x="736" y="318" font-size="14" font-weight="700" fill="#ffffff">Wix / Squarespace</text>
    <text x="736" y="354" font-size="10" fill="#7a90a8">Embed code</text>

    <rect x="888" y="284" width="200" height="86" rx="14" fill="#0b1d2d" stroke="#1a334a"/>
    <text x="918" y="320" font-size="20">⚛️</text>
    <text x="952" y="318" font-size="14" font-weight="700" fill="#ffffff">Custom website</text>
    <text x="952" y="354" font-size="10" fill="#7a90a8">React, Next, plain HTML</text>

    <rect x="1104" y="284" width="200" height="86" rx="14" fill="#0b1d2d" stroke="#1a334a"/>
    <text x="1134" y="320" font-size="20">📱</text>
    <text x="1168" y="318" font-size="14" font-weight="700" fill="#ffffff">Mobile app</text>
    <text x="1168" y="354" font-size="10" fill="#7a90a8">iOS · Android SDKs</text>
  </g>

  <rect x="240" y="402" width="848" height="372" rx="20" fill="#04101c"/>
  <rect x="240" y="402" width="848" height="48" rx="20" fill="#10263a"/>
  <rect x="240" y="430" width="848" height="20" fill="#10263a"/>
  <text x="268" y="432" font-size="12" font-weight="700" fill="#5dd3df">install.html</text>
  <text x="380" y="432" font-size="11" fill="#94a8bd">— paste before &lt;/body&gt; in your Shopify theme</text>
  <rect x="924" y="412" width="74" height="28" rx="14" fill="#04101c" stroke="#1a334a"/>
  <text x="938" y="430" font-size="11" font-weight="700" fill="#94a8bd">Reveal token</text>
  <rect x="1006" y="412" width="68" height="28" rx="14" fill="#5dd3df"/>
  <text x="1024" y="430" font-size="11" font-weight="700" fill="#0b1d2d">📋 Copy</text>

  <g font-family="ui-monospace, SFMono-Regular, Menlo, monospace" font-size="13">
    <text x="266" y="486" fill="#5a7388">1</text>
    <text x="290" y="486" fill="#7a90a8">&lt;!-- MoAssist · 1-line install · auto-detects theme --&gt;</text>

    <text x="266" y="514" fill="#5a7388">2</text>
    <text x="290" y="514" fill="#5dd3df">&lt;script</text>
    <text x="362" y="514" fill="#fcd34d">async</text>
    <text x="414" y="514" fill="#fcd34d">src</text>
    <text x="438" y="514" fill="#94a8bd">=</text>
    <text x="446" y="514" fill="#86efac">"https://cdn.moassist.io/v2/widget.js"</text>

    <text x="266" y="542" fill="#5a7388">3</text>
    <text x="362" y="542" fill="#fcd34d">data-bot</text>
    <text x="430" y="542" fill="#94a8bd">=</text>
    <text x="438" y="542" fill="#86efac">"aria-nordic-bloom"</text>

    <text x="266" y="570" fill="#5a7388">4</text>
    <text x="362" y="570" fill="#fcd34d">data-key</text>
    <text x="430" y="570" fill="#94a8bd">=</text>
    <text x="438" y="570" fill="#86efac">"pk_live_•••••••••••••••3a2f9c"</text>

    <text x="266" y="598" fill="#5a7388">5</text>
    <text x="362" y="598" fill="#fcd34d">data-theme</text>
    <text x="448" y="598" fill="#94a8bd">=</text>
    <text x="456" y="598" fill="#86efac">"auto"</text>
    <text x="508" y="598" fill="#fcd34d">data-position</text>
    <text x="612" y="598" fill="#94a8bd">=</text>
    <text x="620" y="598" fill="#86efac">"bottom-right"</text>

    <text x="266" y="626" fill="#5a7388">6</text>
    <text x="362" y="626" fill="#fcd34d">data-locale</text>
    <text x="450" y="626" fill="#94a8bd">=</text>
    <text x="458" y="626" fill="#86efac">"auto"</text>
    <text x="502" y="626" fill="#94a8bd">&gt;&lt;/</text>
    <text x="526" y="626" fill="#5dd3df">script</text>
    <text x="580" y="626" fill="#94a8bd">&gt;</text>

    <text x="266" y="668" fill="#5a7388">7</text>
    <text x="290" y="668" fill="#7a90a8">// Optional: pass logged-in customer + cart data</text>

    <text x="266" y="696" fill="#5a7388">8</text>
    <text x="290" y="696" fill="#5dd3df">window</text>
    <text x="338" y="696" fill="#94a8bd">.</text>
    <text x="342" y="696" fill="#fcd34d">moAssist</text>
    <text x="408" y="696" fill="#94a8bd">.</text>
    <text x="412" y="696" fill="#fcd34d">identify</text>
    <text x="476" y="696" fill="#94a8bd">({ </text>
    <text x="498" y="696" fill="#86efac">email</text>
    <text x="538" y="696" fill="#94a8bd">: </text>
    <text x="554" y="696" fill="#86efac">customer.email</text>
    <text x="668" y="696" fill="#94a8bd">, </text>
    <text x="684" y="696" fill="#86efac">order_id</text>
    <text x="746" y="696" fill="#94a8bd">: </text>
    <text x="762" y="696" fill="#86efac">order.id</text>
    <text x="822" y="696" fill="#94a8bd">});</text>

    <text x="266" y="724" fill="#5a7388">9</text>
    <text x="290" y="724" fill="#7a90a8">// That's it. Aria adapts to your theme automatically.</text>
  </g>

  <rect x="1112" y="402" width="448" height="178" rx="20" fill="#0b1d2d" stroke="#1a334a"/>
  <text x="1136" y="438" font-size="14" font-weight="700" fill="#ffffff">Prefer to skip the code?</text>
  <text x="1136" y="462" font-size="12" fill="#94a8bd">Our team installs Aria on your store for free —</text>
  <text x="1136" y="480" font-size="12" fill="#94a8bd">live within 24 hours. Just hand us read access.</text>
  <rect x="1136" y="500" width="180" height="44" rx="11" fill="#5dd3df"/>
  <text x="1162" y="528" font-size="13" font-weight="700" fill="#0b1d2d">Book free install →</text>
  <rect x="1330" y="500" width="100" height="44" rx="11" fill="#10263a" stroke="#1a334a"/>
  <text x="1348" y="528" font-size="13" fill="#def1f2">⌐ Docs</text>
  <text x="1136" y="566" font-size="11" fill="#7a90a8">Average install time when our team handles it: 11 minutes.</text>

  <rect x="1112" y="600" width="448" height="174" rx="20" fill="#0b1d2d" stroke="#1a334a"/>
  <text x="1136" y="636" font-size="14" font-weight="700" fill="#ffffff">Health checks · live</text>
  <g font-size="13">
    <circle cx="1148" cy="666" r="8" fill="#34d399"/>
    <text x="1166" y="670" fill="#def1f2">Widget loaded on 218 / 218 pages</text>

    <circle cx="1148" cy="694" r="8" fill="#34d399"/>
    <text x="1166" y="698" fill="#def1f2">Cookie + GDPR consent connected</text>

    <circle cx="1148" cy="722" r="8" fill="#34d399"/>
    <text x="1166" y="726" fill="#def1f2">Customer auth handshake working</text>

    <circle cx="1148" cy="750" r="8" fill="#34d399"/>
    <text x="1166" y="754" fill="#def1f2">Cart + order data syncing every 30s</text>
  </g>

  <rect x="240" y="804" width="848" height="316" rx="20" fill="#0b1d2d" stroke="#1a334a"/>
  <text x="264" y="840" font-size="14" font-weight="700" fill="#ffffff">How it looks on your store</text>
  <text x="264" y="860" font-size="12" fill="#94a8bd">Auto-adapts to dark / light, your brand colors, and 20+ languages</text>

  <g>
    <rect x="264" y="884" width="252" height="216" rx="16" fill="#08182a" stroke="#1a334a"/>
    <text x="280" y="912" font-size="10" font-weight="700" fill="#7a90a8" letter-spacing="0.6">DESKTOP · LIGHT</text>
    <rect x="280" y="924" width="220" height="138" rx="10" fill="#f1f7fc"/>
    <rect x="424" y="1002" width="68" height="52" rx="14" fill="#099ad9"/>
    <text x="442" y="1034" font-size="13">💬</text>

    <rect x="540" y="884" width="252" height="216" rx="16" fill="#04101c"/>
    <text x="556" y="912" font-size="10" font-weight="700" fill="#5dd3df" letter-spacing="0.6">DESKTOP · DARK</text>
    <rect x="556" y="924" width="220" height="138" rx="10" fill="#10263a"/>
    <rect x="700" y="1002" width="68" height="52" rx="14" fill="#5dd3df"/>
    <text x="718" y="1034" font-size="13">💬</text>

    <rect x="816" y="884" width="120" height="216" rx="16" fill="#08182a" stroke="#1a334a"/>
    <text x="832" y="912" font-size="10" font-weight="700" fill="#7a90a8" letter-spacing="0.6">MOBILE</text>
    <rect x="832" y="924" width="88" height="138" rx="8" fill="#f1f7fc"/>
    <rect x="868" y="1018" width="44" height="36" rx="11" fill="#099ad9"/>
    <text x="876" y="1042" font-size="11">💬</text>

    <rect x="960" y="884" width="120" height="216" rx="16" fill="#04101c"/>
    <text x="976" y="912" font-size="10" font-weight="700" fill="#5dd3df" letter-spacing="0.6">MOBILE · DARK</text>
    <rect x="976" y="924" width="88" height="138" rx="8" fill="#10263a"/>
    <rect x="1012" y="1018" width="44" height="36" rx="11" fill="#5dd3df"/>
    <text x="1020" y="1042" font-size="11">💬</text>
  </g>

  <rect x="1112" y="804" width="448" height="316" rx="20" fill="#0b1d2d" stroke="#1a334a"/>
  <text x="1136" y="840" font-size="14" font-weight="700" fill="#ffffff">API keys &amp; allowed domains</text>

  <text x="1136" y="876" font-size="11" font-weight="700" fill="#7a90a8" letter-spacing="0.6">PUBLIC KEY · CLIENT-SAFE</text>
  <rect x="1136" y="884" width="404" height="44" rx="11" fill="#10263a" stroke="#1a334a"/>
  <text x="1156" y="912" font-family="ui-monospace, monospace" font-size="12" fill="#def1f2">pk_live_4f8a••••••••••••••3a2f9c</text>
  <text x="1500" y="912" font-size="11" font-weight="700" fill="#5dd3df" text-anchor="end">📋</text>

  <text x="1136" y="956" font-size="11" font-weight="700" fill="#7a90a8" letter-spacing="0.6">SERVER KEY · KEEP SECRET</text>
  <rect x="1136" y="964" width="404" height="44" rx="11" fill="#10263a" stroke="#1a334a"/>
  <text x="1156" y="992" font-family="ui-monospace, monospace" font-size="12" fill="#def1f2">sk_live_••••••••••••••••••••</text>
  <text x="1500" y="992" font-size="11" font-weight="700" fill="#5dd3df" text-anchor="end">👁 Reveal</text>

  <text x="1136" y="1036" font-size="11" font-weight="700" fill="#7a90a8" letter-spacing="0.6">ALLOWED DOMAINS</text>
  <rect x="1136" y="1044" width="178" height="32" rx="11" fill="#0e3247"/>
  <text x="1148" y="1064" font-size="11" font-weight="600" fill="#5dd3df">nordicbloom.store ✕</text>
  <rect x="1326" y="1044" width="158" height="32" rx="11" fill="#0e3247"/>
  <text x="1340" y="1064" font-size="11" font-weight="600" fill="#5dd3df">checkout.nordic… ✕</text>
  <text x="1136" y="1102" font-size="11" fill="#94a8bd">+ Add domain · staging, mobile webview, etc.</text>
</svg>
