<svg xmlns="http://www.w3.org/2000/svg" viewBox="0 0 1600 800" font-family="Inter, system-ui, -apple-system, sans-serif">
  <defs>
    <linearGradient id="bg" x1="0" y1="0" x2="0" y2="1">
      <stop offset="0%" stop-color="#061322"/>
      <stop offset="100%" stop-color="#0a1f30"/>
    </linearGradient>
    <linearGradient id="up" x1="0" y1="0" x2="1" y2="0">
      <stop offset="0%" stop-color="#1bb1d4"/>
      <stop offset="100%" stop-color="#5dd3df"/>
    </linearGradient>
  </defs>
  <rect width="1600" height="800" fill="url(#bg)"/>

  <rect x="0" y="0" width="1600" height="56" fill="#0b1d2d"/>
  <line x1="0" y1="56" x2="1600" y2="56" stroke="#142c41"/>
  <rect x="20" y="16" width="22" height="22" rx="6" fill="url(#up)"/>
  <text x="50" y="34" font-size="15" font-weight="700" fill="#ffffff">MoAssist</text>
  <text x="160" y="34" font-size="12" fill="#7a90a8">Chatbots / Aria / Knowledge</text>
  <circle cx="1564" cy="28" r="14" fill="#1bb1d4"/>
  <text x="1556" y="32" font-size="11" font-weight="700" fill="#0b1d2d">AB</text>

  <rect x="0" y="56" width="200" height="744" fill="#0b1d2d"/>
  <line x1="200" y1="56" x2="200" y2="800" stroke="#142c41"/>
  <g font-size="12" fill="#94a8bd">
    <text x="24" y="98">Overview</text>
    <text x="24" y="138">Conversations</text>
    <rect x="14" y="156" width="172" height="32" rx="9" fill="#112b3f"/>
    <text x="24" y="176" font-weight="600" fill="#def1f2">Knowledge</text>
    <text x="24" y="216">Appearance</text>
    <text x="24" y="256">Behavior</text>
    <text x="24" y="296">Lead capture</text>
    <text x="24" y="336">Install</text>
    <text x="24" y="376">Analytics</text>
  </g>

  <text x="232" y="98" font-size="22" font-weight="700" fill="#ffffff">Knowledge base</text>
  <text x="232" y="120" font-size="12" fill="#94a8bd">Documents and pages your chatbot learns from. Updates apply within seconds.</text>
  <rect x="1230" y="80" width="160" height="36" rx="10" fill="#0b1d2d" stroke="#1a334a"/>
  <text x="1244" y="103" font-size="12" fill="#94a8bd">↻ Re-train (38s)</text>
  <rect x="1400" y="80" width="170" height="36" rx="10" fill="#1bb1d4"/>
  <text x="1416" y="103" font-size="12" font-weight="600" fill="#0b1d2d">+ Add document</text>

  <g>
    <rect x="232" y="148" width="200" height="76" rx="14" fill="#0b1d2d" stroke="#1a334a"/>
    <text x="248" y="170" font-size="10" font-weight="600" fill="#94a8bd" letter-spacing="0.6">DOCUMENTS</text>
    <text x="248" y="206" font-size="24" font-weight="700" fill="#ffffff">24</text>

    <rect x="448" y="148" width="200" height="76" rx="14" fill="#0b1d2d" stroke="#1a334a"/>
    <text x="464" y="170" font-size="10" font-weight="600" fill="#94a8bd" letter-spacing="0.6">PAGES INDEXED</text>
    <text x="464" y="206" font-size="24" font-weight="700" fill="#ffffff">312</text>

    <rect x="664" y="148" width="200" height="76" rx="14" fill="#0b1d2d" stroke="#1a334a"/>
    <text x="680" y="170" font-size="10" font-weight="600" fill="#94a8bd" letter-spacing="0.6">LAST SYNC</text>
    <text x="680" y="206" font-size="14" font-weight="600" fill="#ffffff">2 minutes ago</text>
    <circle cx="828" cy="200" r="6" fill="#34d399"/>

    <rect x="880" y="148" width="200" height="76" rx="14" fill="#0b1d2d" stroke="#1a334a"/>
    <text x="896" y="170" font-size="10" font-weight="600" fill="#94a8bd" letter-spacing="0.6">COVERAGE</text>
    <text x="896" y="206" font-size="24" font-weight="700" fill="#ffffff">94%</text>
    <text x="950" y="206" font-size="11" fill="#34d399">▲ 6%</text>
  </g>

  <rect x="1100" y="148" width="466" height="76" rx="14" fill="#112b3f" stroke="#5dd3df" stroke-dasharray="6 4"/>
  <text x="1132" y="180" font-size="13" font-weight="600" fill="#5dd3df">Drop PDF, DOCX, TXT, MD, or paste a URL</text>
  <text x="1132" y="202" font-size="11" fill="#94a8bd">or scrape your whole storefront — we read up to 500 pages.</text>

  <rect x="232" y="248" width="1334" height="510" rx="16" fill="#0b1d2d" stroke="#1a334a"/>
  <line x1="232" y1="296" x2="1566" y2="296" stroke="#142c41"/>
  <g font-size="11" font-weight="600" fill="#7a90a8" letter-spacing="0.6">
    <text x="252" y="280">DOCUMENT</text>
    <text x="780" y="280">SOURCE</text>
    <text x="950" y="280">PAGES</text>
    <text x="1040" y="280">LAST UPDATED</text>
    <text x="1220" y="280">USED IN CHATS</text>
    <text x="1380" y="280">STATUS</text>
  </g>

  <g font-size="13" fill="#ffffff">
    <rect x="252" y="312" width="32" height="32" rx="7" fill="#3b1f1f"/>
    <text x="260" y="334" font-size="10" font-weight="700" fill="#fda4af">PDF</text>
    <text x="296" y="328" font-weight="600">Shipping policy 2025</text>
    <text x="296" y="346" font-size="11" fill="#7a90a8">EU, UK, US zones · couriers · timing</text>
    <text x="780" y="334" font-size="12" fill="#94a8bd">Upload</text>
    <text x="950" y="334" font-size="12" fill="#94a8bd">8</text>
    <text x="1040" y="334" font-size="12" fill="#94a8bd">2 days ago</text>
    <text x="1220" y="334" font-size="12" fill="#94a8bd">412 chats</text>
    <rect x="1380" y="320" width="76" height="22" rx="11" fill="#1f3a2c"/>
    <text x="1390" y="335" font-size="10" font-weight="700" fill="#86efac">● Indexed</text>
    <line x1="252" y1="370" x2="1546" y2="370" stroke="#142c41"/>

    <rect x="252" y="384" width="32" height="32" rx="7" fill="#3a2e1a"/>
    <text x="261" y="406" font-size="10" font-weight="700" fill="#fcd34d">DOC</text>
    <text x="296" y="400" font-weight="600">Returns &amp; refunds policy</text>
    <text x="296" y="418" font-size="11" fill="#7a90a8">30-day window · process · exceptions</text>
    <text x="780" y="406" font-size="12" fill="#94a8bd">Upload</text>
    <text x="950" y="406" font-size="12" fill="#94a8bd">4</text>
    <text x="1040" y="406" font-size="12" fill="#94a8bd">5 days ago</text>
    <text x="1220" y="406" font-size="12" fill="#94a8bd">298 chats</text>
    <rect x="1380" y="392" width="76" height="22" rx="11" fill="#1f3a2c"/>
    <text x="1390" y="407" font-size="10" font-weight="700" fill="#86efac">● Indexed</text>
    <line x1="252" y1="442" x2="1546" y2="442" stroke="#142c41"/>

    <rect x="252" y="456" width="32" height="32" rx="7" fill="#0e3247"/>
    <text x="262" y="478" font-size="10" font-weight="700" fill="#5dd3df">URL</text>
    <text x="296" y="472" font-weight="600">nordicbloom.store</text>
    <text x="296" y="490" font-size="11" fill="#7a90a8">Auto-scraped · 218 product pages + collections</text>
    <text x="780" y="478" font-size="12" fill="#94a8bd">Crawler</text>
    <text x="950" y="478" font-size="12" fill="#94a8bd">218</text>
    <text x="1040" y="478" font-size="12" fill="#94a8bd">2 min ago</text>
    <text x="1220" y="478" font-size="12" fill="#94a8bd">1,041 chats</text>
    <rect x="1380" y="464" width="100" height="22" rx="11" fill="#0e3247"/>
    <text x="1390" y="479" font-size="10" font-weight="700" fill="#5dd3df">● Auto-syncing</text>
    <line x1="252" y1="514" x2="1546" y2="514" stroke="#142c41"/>

    <rect x="252" y="528" width="32" height="32" rx="7" fill="#241e3e"/>
    <text x="261" y="550" font-size="10" font-weight="700" fill="#c4b5fd">CSV</text>
    <text x="296" y="544" font-weight="600">Product catalog Q3</text>
    <text x="296" y="562" font-size="11" fill="#7a90a8">SKUs · sizing · materials · stock levels</text>
    <text x="780" y="550" font-size="12" fill="#94a8bd">Shopify sync</text>
    <text x="950" y="550" font-size="12" fill="#94a8bd">512</text>
    <text x="1040" y="550" font-size="12" fill="#94a8bd">12 hours ago</text>
    <text x="1220" y="550" font-size="12" fill="#94a8bd">876 chats</text>
    <rect x="1380" y="536" width="76" height="22" rx="11" fill="#1f3a2c"/>
    <text x="1390" y="551" font-size="10" font-weight="700" fill="#86efac">● Indexed</text>
    <line x1="252" y1="586" x2="1546" y2="586" stroke="#142c41"/>

    <rect x="252" y="600" width="32" height="32" rx="7" fill="#1f3a2c"/>
    <text x="262" y="622" font-size="10" font-weight="700" fill="#86efac">FAQ</text>
    <text x="296" y="616" font-weight="600">Customer service FAQ</text>
    <text x="296" y="634" font-size="11" fill="#7a90a8">28 questions · order tracking · payment · sizing</text>
    <text x="780" y="622" font-size="12" fill="#94a8bd">Manual</text>
    <text x="950" y="622" font-size="12" fill="#94a8bd">28</text>
    <text x="1040" y="622" font-size="12" fill="#94a8bd">1 week ago</text>
    <text x="1220" y="622" font-size="12" fill="#94a8bd">724 chats</text>
    <rect x="1380" y="608" width="76" height="22" rx="11" fill="#1f3a2c"/>
    <text x="1390" y="623" font-size="10" font-weight="700" fill="#86efac">● Indexed</text>
    <line x1="252" y1="658" x2="1546" y2="658" stroke="#142c41"/>

    <rect x="252" y="672" width="32" height="32" rx="7" fill="#3b1f1f"/>
    <text x="260" y="694" font-size="10" font-weight="700" fill="#fda4af">PDF</text>
    <text x="296" y="688" font-weight="600">Black Friday — terms &amp; conditions</text>
    <text x="296" y="706" font-size="11" fill="#7a90a8">Promo windows · discount stacking · final sale</text>
    <text x="780" y="694" font-size="12" fill="#94a8bd">Upload</text>
    <text x="950" y="694" font-size="12" fill="#94a8bd">3</text>
    <text x="1040" y="694" font-size="12" fill="#94a8bd">just now</text>
    <text x="1220" y="694" font-size="12" fill="#94a8bd">—</text>
    <rect x="1380" y="680" width="86" height="22" rx="11" fill="#3a2e1a"/>
    <text x="1390" y="695" font-size="10" font-weight="700" fill="#fcd34d">● Training…</text>
  </g>
</svg>
