<svg xmlns="http://www.w3.org/2000/svg" viewBox="0 0 1600 1200" font-family="Inter, system-ui, -apple-system, sans-serif">
  <defs>
    <linearGradient id="bg" x1="0" y1="0" x2="0" y2="1">
      <stop offset="0%" stop-color="#f4faff"/>
      <stop offset="100%" stop-color="#e7f1f9"/>
    </linearGradient>
    <linearGradient id="ac" x1="0" y1="0" x2="1" y2="0">
      <stop offset="0%" stop-color="#099ad9"/>
      <stop offset="100%" stop-color="#5dd3df"/>
    </linearGradient>
  </defs>
  <rect width="1600" height="1200" fill="url(#bg)"/>

  <!-- Header bar -->
  <rect x="0" y="0" width="1600" height="56" fill="#ffffff"/>
  <line x1="0" y1="56" x2="1600" y2="56" stroke="#e1ebf3"/>
  <rect x="20" y="16" width="22" height="22" rx="6" fill="url(#ac)"/>
  <text x="50" y="34" font-size="15" font-weight="700" fill="#0b1d2d">MoAssist</text>
  <text x="160" y="34" font-size="12" fill="#94a8bd">Chatbots / Aria / Lead capture</text>
  <circle cx="1564" cy="28" r="14" fill="#099ad9"/>
  <text x="1556" y="32" font-size="11" font-weight="700" fill="#ffffff">AB</text>

  <!-- Page header -->
  <text x="60" y="118" font-size="26" font-weight="700" fill="#0b1d2d">Lead capture &amp; recommendations</text>
  <text x="60" y="146" font-size="13" fill="#5a6b7d">Turn browsers into buyers. Aria offers products, captures emails, and recovers carts — automatically.</text>

  <!-- Stats row -->
  <g>
    <rect x="60" y="184" width="332" height="118" rx="18" fill="#ffffff" stroke="#e1ebf3"/>
    <text x="84" y="216" font-size="11" font-weight="600" fill="#94a8bd" letter-spacing="0.6">LEADS CAPTURED · TODAY</text>
    <text x="84" y="262" font-size="36" font-weight="700" fill="#0b1d2d">142</text>
    <text x="84" y="288" font-size="12" fill="#16a34a">▲ 47 vs yesterday</text>

    <rect x="412" y="184" width="332" height="118" rx="18" fill="#ffffff" stroke="#e1ebf3"/>
    <text x="436" y="216" font-size="11" font-weight="600" fill="#94a8bd" letter-spacing="0.6">CONVERSION FROM CHAT</text>
    <text x="436" y="262" font-size="36" font-weight="700" fill="#0b1d2d">22.4%</text>
    <text x="436" y="288" font-size="12" fill="#16a34a">▲ 3.1% this week</text>

    <rect x="764" y="184" width="332" height="118" rx="18" fill="#ffffff" stroke="#e1ebf3"/>
    <text x="788" y="216" font-size="11" font-weight="600" fill="#94a8bd" letter-spacing="0.6">CART RECOVERED</text>
    <text x="788" y="262" font-size="36" font-weight="700" fill="#0b1d2d">€18,420</text>
    <text x="788" y="288" font-size="12" fill="#16a34a">in the last 30 days</text>

    <rect x="1116" y="184" width="424" height="118" rx="18" fill="#0b1d2d"/>
    <text x="1140" y="216" font-size="11" font-weight="600" fill="#5dd3df" letter-spacing="0.6">TOP RECOMMENDATION</text>
    <text x="1140" y="252" font-size="18" font-weight="700" fill="#ffffff">Linen Summer Dress · €129</text>
    <text x="1140" y="276" font-size="12" fill="#94a8bd">Suggested in 312 chats · 28% added to cart</text>
    <rect x="1140" y="284" width="180" height="6" rx="3" fill="#1a334a"/>
    <rect x="1140" y="284" width="50" height="6" rx="3" fill="#5dd3df"/>
  </g>

  <!-- Left: Chat widget -->
  <rect x="60" y="332" width="520" height="788" rx="24" fill="#ffffff" stroke="#e1ebf3"/>
  <rect x="60" y="332" width="520" height="86" rx="24" fill="url(#ac)"/>
  <rect x="60" y="392" width="520" height="26" fill="url(#ac)"/>
  <circle cx="98" cy="376" r="22" fill="#ffffff"/>
  <text x="88" y="383" font-size="20">🤖</text>
  <circle cx="112" cy="390" r="6" fill="#16a34a" stroke="#ffffff" stroke-width="2"/>
  <text x="136" y="368" font-size="15" font-weight="700" fill="#ffffff">Aria</text>
  <text x="136" y="388" font-size="11" fill="#cfeefb">Helping you find your summer fit</text>

  <text x="320" y="448" font-size="10" fill="#94a8bd" text-anchor="middle">Today, 16:08</text>

  <rect x="80" y="462" width="320" height="60" rx="14" fill="#f1f7fc"/>
  <text x="96" y="486" font-size="13" fill="#0b1d2d">I'm looking for a summer dress</text>
  <text x="96" y="506" font-size="13" fill="#0b1d2d">that's breathable for hot days.</text>

  <!-- bot message + product cards -->
  <rect x="80" y="538" width="380" height="48" rx="14" fill="#e3f2fb"/>
  <text x="96" y="568" font-size="13" fill="#10435f">Great pick! Here are 3 our customers love 👇</text>

  <g>
    <rect x="80" y="600" width="156" height="170" rx="14" fill="#ffffff" stroke="#e1ebf3"/>
    <rect x="92" y="612" width="132" height="92" rx="10" fill="#e9d6c0"/>
    <text x="92" y="724" font-size="11" font-weight="700" fill="#0b1d2d">Linen Dress</text>
    <text x="92" y="742" font-size="11" fill="#5a6b7d">€129</text>
    <text x="92" y="758" font-size="10" fill="#16a34a">⭐ 4.9 · 218 reviews</text>

    <rect x="246" y="600" width="156" height="170" rx="14" fill="#ffffff" stroke="#099ad9" stroke-width="2"/>
    <rect x="258" y="612" width="132" height="92" rx="10" fill="#bccfd1"/>
    <text x="258" y="724" font-size="11" font-weight="700" fill="#0b1d2d">Cotton Midi</text>
    <text x="258" y="742" font-size="11" fill="#5a6b7d">€98</text>
    <text x="258" y="758" font-size="10" fill="#099ad9" font-weight="700">★ Best match</text>

    <rect x="412" y="600" width="156" height="170" rx="14" fill="#ffffff" stroke="#e1ebf3"/>
    <rect x="424" y="612" width="132" height="92" rx="10" fill="#a88b6e"/>
    <text x="424" y="724" font-size="11" font-weight="700" fill="#0b1d2d">Sun Slip</text>
    <text x="424" y="742" font-size="11" fill="#5a6b7d">€89</text>
    <text x="424" y="758" font-size="10" fill="#5a6b7d">⭐ 4.7 · 92 reviews</text>
  </g>

  <!-- Lead capture card -->
  <rect x="80" y="790" width="488" height="222" rx="18" fill="#10435f"/>
  <text x="100" y="822" font-size="11" font-weight="700" fill="#5dd3df" letter-spacing="0.6">EXCLUSIVE OFFER</text>
  <text x="100" y="852" font-size="17" font-weight="700" fill="#ffffff">Get 15% off your first order ✨</text>
  <text x="100" y="876" font-size="12" fill="#cfeefb">Drop your email and I'll send the code right now.</text>

  <rect x="100" y="894" width="284" height="44" rx="11" fill="#ffffff"/>
  <text x="116" y="922" font-size="13" fill="#0b1d2d">anna.lindqvist@gmail.com</text>
  <rect x="394" y="894" width="154" height="44" rx="11" fill="#5dd3df"/>
  <text x="426" y="922" font-size="13" font-weight="700" fill="#0b1d2d">Send my code →</text>

  <text x="100" y="970" font-size="10" fill="#cfeefb">✓ No spam · unsubscribe in one click · GDPR-compliant</text>
  <text x="100" y="994" font-size="10" fill="#94a8bd">By submitting you agree to Nordic Bloom's privacy policy.</text>

  <!-- composer -->
  <rect x="80" y="1040" width="480" height="42" rx="21" fill="#f1f7fc" stroke="#e1ebf3"/>
  <text x="98" y="1066" font-size="13" fill="#94a8bd">Type your message…</text>
  <circle cx="540" cy="1061" r="14" fill="#099ad9"/>
  <text x="534" y="1065" font-size="11" fill="#ffffff">➤</text>

  <!-- Right: Capture rules + recent leads -->
  <rect x="612" y="332" width="928" height="372" rx="20" fill="#ffffff" stroke="#e1ebf3"/>
  <text x="636" y="368" font-size="16" font-weight="700" fill="#0b1d2d">Active capture rules</text>
  <text x="636" y="388" font-size="12" fill="#5a6b7d">When Aria spots buying intent or a likely exit, it triggers one of these.</text>
  <rect x="1380" y="348" width="140" height="36" rx="10" fill="#099ad9"/>
  <text x="1410" y="371" font-size="12" font-weight="600" fill="#ffffff">+ New rule</text>

  <g font-size="13">
    <rect x="636" y="416" width="884" height="64" rx="14" fill="#f1f7fc"/>
    <circle cx="664" cy="448" r="14" fill="#099ad9"/>
    <text x="660" y="453" font-size="12" font-weight="700" fill="#ffffff">1</text>
    <text x="690" y="442" font-weight="600" fill="#0b1d2d">Offer 15% discount when visitor mentions price hesitation</text>
    <text x="690" y="462" font-size="11" fill="#5a6b7d">Triggers on: "expensive", "discount", "code", "promo" · captured 84 emails today</text>
    <rect x="1426" y="438" width="88" height="22" rx="11" fill="#e0f6e8"/>
    <text x="1442" y="453" font-size="10" font-weight="700" fill="#1f6f47">● Active</text>

    <rect x="636" y="492" width="884" height="64" rx="14" fill="#f1f7fc"/>
    <circle cx="664" cy="524" r="14" fill="#099ad9"/>
    <text x="660" y="529" font-size="12" font-weight="700" fill="#ffffff">2</text>
    <text x="690" y="518" font-weight="600" fill="#0b1d2d">Recover abandoned cart with size-back-in-stock alert</text>
    <text x="690" y="538" font-size="11" fill="#5a6b7d">Triggers when: cart sat 2+ min and exit intent detected · recovered €18.4k / 30 days</text>
    <rect x="1426" y="514" width="88" height="22" rx="11" fill="#e0f6e8"/>
    <text x="1442" y="529" font-size="10" font-weight="700" fill="#1f6f47">● Active</text>

    <rect x="636" y="568" width="884" height="64" rx="14" fill="#f1f7fc"/>
    <circle cx="664" cy="600" r="14" fill="#099ad9"/>
    <text x="660" y="605" font-size="12" font-weight="700" fill="#ffffff">3</text>
    <text x="690" y="594" font-weight="600" fill="#0b1d2d">Recommend top 3 products when "what should I buy?"</text>
    <text x="690" y="614" font-size="11" fill="#5a6b7d">Personalized to viewed pages · 28% click → product · €23 avg AOV lift</text>
    <rect x="1426" y="590" width="88" height="22" rx="11" fill="#e0f6e8"/>
    <text x="1442" y="605" font-size="10" font-weight="700" fill="#1f6f47">● Active</text>

    <rect x="636" y="644" width="884" height="44" rx="14" fill="#f1f7fc" opacity="0.6"/>
    <circle cx="664" cy="666" r="14" fill="#94a8bd"/>
    <text x="660" y="671" font-size="12" font-weight="700" fill="#ffffff">4</text>
    <text x="690" y="672" fill="#5a6b7d">Newsletter signup at chat close (paused)</text>
    <rect x="1426" y="656" width="80" height="22" rx="11" fill="#eef4f9"/>
    <text x="1442" y="671" font-size="10" font-weight="700" fill="#5a6b7d">○ Paused</text>
  </g>

  <!-- Recent leads table -->
  <rect x="612" y="724" width="928" height="396" rx="20" fill="#ffffff" stroke="#e1ebf3"/>
  <text x="636" y="760" font-size="16" font-weight="700" fill="#0b1d2d">Recent leads captured</text>
  <text x="1450" y="760" font-size="12" font-weight="600" fill="#099ad9">Export →</text>

  <line x1="636" y1="788" x2="1520" y2="788" stroke="#eef4f9"/>
  <g font-size="11" font-weight="600" fill="#94a8bd" letter-spacing="0.6">
    <text x="636" y="780">EMAIL</text>
    <text x="980" y="780">CAPTURED VIA</text>
    <text x="1230" y="780">INTENT</text>
    <text x="1380" y="780">TIME</text>
  </g>

  <g font-size="13" fill="#0b1d2d">
    <text x="636" y="816">anna.lindqvist@gmail.com</text>
    <text x="980" y="816" font-size="12" fill="#5a6b7d">15% offer · price hesitation</text>
    <rect x="1230" y="800" width="86" height="22" rx="11" fill="#e0f6e8"/>
    <text x="1244" y="815" font-size="10" font-weight="700" fill="#1f6f47">High · 92</text>
    <text x="1380" y="816" font-size="12" fill="#94a8bd">just now</text>
    <line x1="636" y1="836" x2="1520" y2="836" stroke="#eef4f9"/>

    <text x="636" y="864">marcus.k@protonmail.com</text>
    <text x="980" y="864" font-size="12" fill="#5a6b7d">Cart recovery · size restock</text>
    <rect x="1230" y="848" width="86" height="22" rx="11" fill="#e0f6e8"/>
    <text x="1244" y="863" font-size="10" font-weight="700" fill="#1f6f47">High · 88</text>
    <text x="1380" y="864" font-size="12" fill="#94a8bd">2m ago</text>
    <line x1="636" y1="884" x2="1520" y2="884" stroke="#eef4f9"/>

    <text x="636" y="912">elena.korhonen@hotmail.com</text>
    <text x="980" y="912" font-size="12" fill="#5a6b7d">Recommendation flow</text>
    <rect x="1230" y="896" width="76" height="22" rx="11" fill="#fef3e3"/>
    <text x="1244" y="911" font-size="10" font-weight="700" fill="#7a5108">Med · 64</text>
    <text x="1380" y="912" font-size="12" fill="#94a8bd">6m ago</text>
    <line x1="636" y1="932" x2="1520" y2="932" stroke="#eef4f9"/>

    <text x="636" y="960">tom.bergstrom@icloud.com</text>
    <text x="980" y="960" font-size="12" fill="#5a6b7d">15% offer · price hesitation</text>
    <rect x="1230" y="944" width="86" height="22" rx="11" fill="#e0f6e8"/>
    <text x="1244" y="959" font-size="10" font-weight="700" fill="#1f6f47">High · 94</text>
    <text x="1380" y="960" font-size="12" fill="#94a8bd">12m ago</text>
    <line x1="636" y1="980" x2="1520" y2="980" stroke="#eef4f9"/>

    <text x="636" y="1008">julia.t@me.com</text>
    <text x="980" y="1008" font-size="12" fill="#5a6b7d">Cart recovery · exit intent</text>
    <rect x="1230" y="992" width="86" height="22" rx="11" fill="#e0f6e8"/>
    <text x="1244" y="1007" font-size="10" font-weight="700" fill="#1f6f47">High · 86</text>
    <text x="1380" y="1008" font-size="12" fill="#94a8bd">18m ago</text>
    <line x1="636" y1="1028" x2="1520" y2="1028" stroke="#eef4f9"/>

    <text x="636" y="1056">pia.svensson@gmail.com</text>
    <text x="980" y="1056" font-size="12" fill="#5a6b7d">Recommendation flow</text>
    <rect x="1230" y="1040" width="76" height="22" rx="11" fill="#fef3e3"/>
    <text x="1244" y="1055" font-size="10" font-weight="700" fill="#7a5108">Med · 71</text>
    <text x="1380" y="1056" font-size="12" fill="#94a8bd">24m ago</text>
    <line x1="636" y1="1076" x2="1520" y2="1076" stroke="#eef4f9"/>

    <text x="636" y="1104">rasmus.holm@me.com</text>
    <text x="980" y="1104" font-size="12" fill="#5a6b7d">15% offer · price hesitation</text>
    <rect x="1230" y="1088" width="86" height="22" rx="11" fill="#e0f6e8"/>
    <text x="1244" y="1103" font-size="10" font-weight="700" fill="#1f6f47">High · 90</text>
    <text x="1380" y="1104" font-size="12" fill="#94a8bd">31m ago</text>
  </g>
</svg>
