<svg xmlns="http://www.w3.org/2000/svg" viewBox="0 0 1600 1200" font-family="Inter, system-ui, -apple-system, sans-serif">
  <defs>
    <linearGradient id="bg" x1="0" y1="0" x2="0" y2="1">
      <stop offset="0%" stop-color="#061322"/>
      <stop offset="100%" stop-color="#0a1f30"/>
    </linearGradient>
    <linearGradient id="ac" x1="0" y1="0" x2="1" y2="0">
      <stop offset="0%" stop-color="#1bb1d4"/>
      <stop offset="100%" stop-color="#5dd3df"/>
    </linearGradient>
  </defs>
  <rect width="1600" height="1200" fill="url(#bg)"/>

  <rect x="0" y="0" width="1600" height="56" fill="#0b1d2d"/>
  <line x1="0" y1="56" x2="1600" y2="56" stroke="#142c41"/>
  <rect x="20" y="16" width="22" height="22" rx="6" fill="url(#ac)"/>
  <text x="50" y="34" font-size="15" font-weight="700" fill="#ffffff">MoAssist</text>
  <text x="160" y="34" font-size="12" fill="#7a90a8">Chatbots / Aria / Lead capture</text>
  <circle cx="1564" cy="28" r="14" fill="#1bb1d4"/>
  <text x="1556" y="32" font-size="11" font-weight="700" fill="#0b1d2d">AB</text>

  <text x="60" y="118" font-size="26" font-weight="700" fill="#ffffff">Lead capture &amp; recommendations</text>
  <text x="60" y="146" font-size="13" fill="#94a8bd">Turn browsers into buyers. Aria offers products, captures emails, and recovers carts — automatically.</text>

  <g>
    <rect x="60" y="184" width="332" height="118" rx="18" fill="#0b1d2d" stroke="#1a334a"/>
    <text x="84" y="216" font-size="11" font-weight="600" fill="#94a8bd" letter-spacing="0.6">LEADS CAPTURED · TODAY</text>
    <text x="84" y="262" font-size="36" font-weight="700" fill="#ffffff">142</text>
    <text x="84" y="288" font-size="12" fill="#34d399">▲ 47 vs yesterday</text>

    <rect x="412" y="184" width="332" height="118" rx="18" fill="#0b1d2d" stroke="#1a334a"/>
    <text x="436" y="216" font-size="11" font-weight="600" fill="#94a8bd" letter-spacing="0.6">CONVERSION FROM CHAT</text>
    <text x="436" y="262" font-size="36" font-weight="700" fill="#ffffff">22.4%</text>
    <text x="436" y="288" font-size="12" fill="#34d399">▲ 3.1% this week</text>

    <rect x="764" y="184" width="332" height="118" rx="18" fill="#0b1d2d" stroke="#1a334a"/>
    <text x="788" y="216" font-size="11" font-weight="600" fill="#94a8bd" letter-spacing="0.6">CART RECOVERED</text>
    <text x="788" y="262" font-size="36" font-weight="700" fill="#ffffff">€18,420</text>
    <text x="788" y="288" font-size="12" fill="#34d399">in the last 30 days</text>

    <rect x="1116" y="184" width="424" height="118" rx="18" fill="#1bb1d4"/>
    <text x="1140" y="216" font-size="11" font-weight="600" fill="#0b1d2d" letter-spacing="0.6">TOP RECOMMENDATION</text>
    <text x="1140" y="252" font-size="18" font-weight="700" fill="#0b1d2d">Linen Summer Dress · €129</text>
    <text x="1140" y="276" font-size="12" fill="#0e3247">Suggested in 312 chats · 28% added to cart</text>
    <rect x="1140" y="284" width="180" height="6" rx="3" fill="#0e3247"/>
    <rect x="1140" y="284" width="50" height="6" rx="3" fill="#ffffff"/>
  </g>

  <rect x="60" y="332" width="520" height="788" rx="24" fill="#0b1d2d" stroke="#1a334a"/>
  <rect x="60" y="332" width="520" height="86" rx="24" fill="url(#ac)"/>
  <rect x="60" y="392" width="520" height="26" fill="url(#ac)"/>
  <circle cx="98" cy="376" r="22" fill="#0b1d2d"/>
  <text x="88" y="383" font-size="20">🤖</text>
  <circle cx="112" cy="390" r="6" fill="#34d399" stroke="#0b1d2d" stroke-width="2"/>
  <text x="136" y="368" font-size="15" font-weight="700" fill="#0b1d2d">Aria</text>
  <text x="136" y="388" font-size="11" fill="#0e3247">Helping you find your summer fit</text>

  <text x="320" y="448" font-size="10" fill="#7a90a8" text-anchor="middle">Today, 16:08</text>

  <rect x="80" y="462" width="320" height="60" rx="14" fill="#10263a"/>
  <text x="96" y="486" font-size="13" fill="#def1f2">I'm looking for a summer dress</text>
  <text x="96" y="506" font-size="13" fill="#def1f2">that's breathable for hot days.</text>

  <rect x="80" y="538" width="380" height="48" rx="14" fill="#112b3f"/>
  <text x="96" y="568" font-size="13" fill="#5dd3df">Great pick! Here are 3 our customers love 👇</text>

  <g>
    <rect x="80" y="600" width="156" height="170" rx="14" fill="#10263a" stroke="#1a334a"/>
    <rect x="92" y="612" width="132" height="92" rx="10" fill="#3a2f1e"/>
    <text x="92" y="724" font-size="11" font-weight="700" fill="#ffffff">Linen Dress</text>
    <text x="92" y="742" font-size="11" fill="#94a8bd">€129</text>
    <text x="92" y="758" font-size="10" fill="#34d399">⭐ 4.9 · 218 reviews</text>

    <rect x="246" y="600" width="156" height="170" rx="14" fill="#10263a" stroke="#5dd3df" stroke-width="2"/>
    <rect x="258" y="612" width="132" height="92" rx="10" fill="#3a4a4d"/>
    <text x="258" y="724" font-size="11" font-weight="700" fill="#ffffff">Cotton Midi</text>
    <text x="258" y="742" font-size="11" fill="#94a8bd">€98</text>
    <text x="258" y="758" font-size="10" fill="#5dd3df" font-weight="700">★ Best match</text>

    <rect x="412" y="600" width="156" height="170" rx="14" fill="#10263a" stroke="#1a334a"/>
    <rect x="424" y="612" width="132" height="92" rx="10" fill="#5a4628"/>
    <text x="424" y="724" font-size="11" font-weight="700" fill="#ffffff">Sun Slip</text>
    <text x="424" y="742" font-size="11" fill="#94a8bd">€89</text>
    <text x="424" y="758" font-size="10" fill="#94a8bd">⭐ 4.7 · 92 reviews</text>
  </g>

  <rect x="80" y="790" width="488" height="222" rx="18" fill="#112b3f" stroke="#5dd3df"/>
  <text x="100" y="822" font-size="11" font-weight="700" fill="#5dd3df" letter-spacing="0.6">EXCLUSIVE OFFER</text>
  <text x="100" y="852" font-size="17" font-weight="700" fill="#ffffff">Get 15% off your first order ✨</text>
  <text x="100" y="876" font-size="12" fill="#94a8bd">Drop your email and I'll send the code right now.</text>

  <rect x="100" y="894" width="284" height="44" rx="11" fill="#0b1d2d" stroke="#1a334a"/>
  <text x="116" y="922" font-size="13" fill="#def1f2">anna.lindqvist@gmail.com</text>
  <rect x="394" y="894" width="154" height="44" rx="11" fill="#5dd3df"/>
  <text x="426" y="922" font-size="13" font-weight="700" fill="#0b1d2d">Send my code →</text>

  <text x="100" y="970" font-size="10" fill="#94a8bd">✓ No spam · unsubscribe in one click · GDPR-compliant</text>
  <text x="100" y="994" font-size="10" fill="#7a90a8">By submitting you agree to Nordic Bloom's privacy policy.</text>

  <rect x="80" y="1040" width="480" height="42" rx="21" fill="#10263a" stroke="#1a334a"/>
  <text x="98" y="1066" font-size="13" fill="#7a90a8">Type your message…</text>
  <circle cx="540" cy="1061" r="14" fill="#5dd3df"/>
  <text x="534" y="1065" font-size="11" fill="#0b1d2d">➤</text>

  <rect x="612" y="332" width="928" height="372" rx="20" fill="#0b1d2d" stroke="#1a334a"/>
  <text x="636" y="368" font-size="16" font-weight="700" fill="#ffffff">Active capture rules</text>
  <text x="636" y="388" font-size="12" fill="#94a8bd">When Aria spots buying intent or a likely exit, it triggers one of these.</text>
  <rect x="1380" y="348" width="140" height="36" rx="10" fill="#1bb1d4"/>
  <text x="1410" y="371" font-size="12" font-weight="600" fill="#0b1d2d">+ New rule</text>

  <g font-size="13">
    <rect x="636" y="416" width="884" height="64" rx="14" fill="#10263a"/>
    <circle cx="664" cy="448" r="14" fill="#5dd3df"/>
    <text x="660" y="453" font-size="12" font-weight="700" fill="#0b1d2d">1</text>
    <text x="690" y="442" font-weight="600" fill="#ffffff">Offer 15% discount when visitor mentions price hesitation</text>
    <text x="690" y="462" font-size="11" fill="#94a8bd">Triggers on: "expensive", "discount", "code", "promo" · captured 84 emails today</text>
    <rect x="1426" y="438" width="88" height="22" rx="11" fill="#1f3a2c"/>
    <text x="1442" y="453" font-size="10" font-weight="700" fill="#86efac">● Active</text>

    <rect x="636" y="492" width="884" height="64" rx="14" fill="#10263a"/>
    <circle cx="664" cy="524" r="14" fill="#5dd3df"/>
    <text x="660" y="529" font-size="12" font-weight="700" fill="#0b1d2d">2</text>
    <text x="690" y="518" font-weight="600" fill="#ffffff">Recover abandoned cart with size-back-in-stock alert</text>
    <text x="690" y="538" font-size="11" fill="#94a8bd">Triggers when: cart sat 2+ min and exit intent detected · recovered €18.4k / 30 days</text>
    <rect x="1426" y="514" width="88" height="22" rx="11" fill="#1f3a2c"/>
    <text x="1442" y="529" font-size="10" font-weight="700" fill="#86efac">● Active</text>

    <rect x="636" y="568" width="884" height="64" rx="14" fill="#10263a"/>
    <circle cx="664" cy="600" r="14" fill="#5dd3df"/>
    <text x="660" y="605" font-size="12" font-weight="700" fill="#0b1d2d">3</text>
    <text x="690" y="594" font-weight="600" fill="#ffffff">Recommend top 3 products when "what should I buy?"</text>
    <text x="690" y="614" font-size="11" fill="#94a8bd">Personalized to viewed pages · 28% click → product · €23 avg AOV lift</text>
    <rect x="1426" y="590" width="88" height="22" rx="11" fill="#1f3a2c"/>
    <text x="1442" y="605" font-size="10" font-weight="700" fill="#86efac">● Active</text>

    <rect x="636" y="644" width="884" height="44" rx="14" fill="#10263a" opacity="0.6"/>
    <circle cx="664" cy="666" r="14" fill="#5a7388"/>
    <text x="660" y="671" font-size="12" font-weight="700" fill="#0b1d2d">4</text>
    <text x="690" y="672" fill="#94a8bd">Newsletter signup at chat close (paused)</text>
    <rect x="1426" y="656" width="80" height="22" rx="11" fill="#142c41"/>
    <text x="1442" y="671" font-size="10" font-weight="700" fill="#94a8bd">○ Paused</text>
  </g>

  <rect x="612" y="724" width="928" height="396" rx="20" fill="#0b1d2d" stroke="#1a334a"/>
  <text x="636" y="760" font-size="16" font-weight="700" fill="#ffffff">Recent leads captured</text>
  <text x="1450" y="760" font-size="12" font-weight="600" fill="#5dd3df">Export →</text>

  <line x1="636" y1="788" x2="1520" y2="788" stroke="#142c41"/>
  <g font-size="11" font-weight="600" fill="#7a90a8" letter-spacing="0.6">
    <text x="636" y="780">EMAIL</text>
    <text x="980" y="780">CAPTURED VIA</text>
    <text x="1230" y="780">INTENT</text>
    <text x="1380" y="780">TIME</text>
  </g>

  <g font-size="13" fill="#ffffff">
    <text x="636" y="816">anna.lindqvist@gmail.com</text>
    <text x="980" y="816" font-size="12" fill="#94a8bd">15% offer · price hesitation</text>
    <rect x="1230" y="800" width="86" height="22" rx="11" fill="#1f3a2c"/>
    <text x="1244" y="815" font-size="10" font-weight="700" fill="#86efac">High · 92</text>
    <text x="1380" y="816" font-size="12" fill="#7a90a8">just now</text>
    <line x1="636" y1="836" x2="1520" y2="836" stroke="#142c41"/>

    <text x="636" y="864">marcus.k@protonmail.com</text>
    <text x="980" y="864" font-size="12" fill="#94a8bd">Cart recovery · size restock</text>
    <rect x="1230" y="848" width="86" height="22" rx="11" fill="#1f3a2c"/>
    <text x="1244" y="863" font-size="10" font-weight="700" fill="#86efac">High · 88</text>
    <text x="1380" y="864" font-size="12" fill="#7a90a8">2m ago</text>
    <line x1="636" y1="884" x2="1520" y2="884" stroke="#142c41"/>

    <text x="636" y="912">elena.korhonen@hotmail.com</text>
    <text x="980" y="912" font-size="12" fill="#94a8bd">Recommendation flow</text>
    <rect x="1230" y="896" width="76" height="22" rx="11" fill="#3a2e1a"/>
    <text x="1244" y="911" font-size="10" font-weight="700" fill="#fcd34d">Med · 64</text>
    <text x="1380" y="912" font-size="12" fill="#7a90a8">6m ago</text>
    <line x1="636" y1="932" x2="1520" y2="932" stroke="#142c41"/>

    <text x="636" y="960">tom.bergstrom@icloud.com</text>
    <text x="980" y="960" font-size="12" fill="#94a8bd">15% offer · price hesitation</text>
    <rect x="1230" y="944" width="86" height="22" rx="11" fill="#1f3a2c"/>
    <text x="1244" y="959" font-size="10" font-weight="700" fill="#86efac">High · 94</text>
    <text x="1380" y="960" font-size="12" fill="#7a90a8">12m ago</text>
    <line x1="636" y1="980" x2="1520" y2="980" stroke="#142c41"/>

    <text x="636" y="1008">julia.t@me.com</text>
    <text x="980" y="1008" font-size="12" fill="#94a8bd">Cart recovery · exit intent</text>
    <rect x="1230" y="992" width="86" height="22" rx="11" fill="#1f3a2c"/>
    <text x="1244" y="1007" font-size="10" font-weight="700" fill="#86efac">High · 86</text>
    <text x="1380" y="1008" font-size="12" fill="#7a90a8">18m ago</text>
    <line x1="636" y1="1028" x2="1520" y2="1028" stroke="#142c41"/>

    <text x="636" y="1056">pia.svensson@gmail.com</text>
    <text x="980" y="1056" font-size="12" fill="#94a8bd">Recommendation flow</text>
    <rect x="1230" y="1040" width="76" height="22" rx="11" fill="#3a2e1a"/>
    <text x="1244" y="1055" font-size="10" font-weight="700" fill="#fcd34d">Med · 71</text>
    <text x="1380" y="1056" font-size="12" fill="#7a90a8">24m ago</text>
    <line x1="636" y1="1076" x2="1520" y2="1076" stroke="#142c41"/>

    <text x="636" y="1104">rasmus.holm@me.com</text>
    <text x="980" y="1104" font-size="12" fill="#94a8bd">15% offer · price hesitation</text>
    <rect x="1230" y="1088" width="86" height="22" rx="11" fill="#1f3a2c"/>
    <text x="1244" y="1103" font-size="10" font-weight="700" fill="#86efac">High · 90</text>
    <text x="1380" y="1104" font-size="12" fill="#7a90a8">31m ago</text>
  </g>
</svg>
