<svg xmlns="http://www.w3.org/2000/svg" font-family="Inter, system-ui, -apple-system, sans-serif" viewBox="0 0 1296 1200"><defs><linearGradient id="a" x1="0" x2="0" y1="0" y2="1"><stop offset="0%" stop-color="#f4faff"/><stop offset="100%" stop-color="#e7f1f9"/></linearGradient><linearGradient id="b" x1="0" x2="1" y1="0" y2="0"><stop offset="0%" stop-color="#099ad9"/><stop offset="100%" stop-color="#5dd3df"/></linearGradient></defs><path fill="url(#a)" d="M0 0h1296v1200H0z"/><path fill="#fff" d="M0 0h1296v64H0z"/><path stroke="#e1ebf3" d="M0 64h1296"/><rect width="24" height="24" x="24" y="20" fill="url(#b)" rx="7"/><text x="58" y="38" fill="#0b1d2d" font-size="17" font-weight="700">MoAssist</text><rect width="320" height="28" x="180" y="18" fill="#f1f7fc" stroke="#e1ebf3" rx="14"/><circle cx="200" cy="32" r="5" fill="none" stroke="#94a8bd" stroke-width="1.5"/><path stroke="#94a8bd" stroke-width="1.5" d="m204 36 4 4"/><text x="218" y="36" fill="#94a8bd" font-size="12">Search conversations, customers, docs…</text><circle cx="1220" cy="32" r="14" fill="#eaf4fb"/><text x="1216" y="36" font-size="13">🔔</text><circle cx="1260" cy="32" r="16" fill="#099ad9"/><text x="1252" y="37" fill="#fff" font-size="13" font-weight="700">AB</text><path fill="#fff" d="M0 64h220v1136H0z"/><path stroke="#e1ebf3" d="M220 64v1136"/><rect width="192" height="36" x="14" y="86" fill="#e3f2fb" rx="10"/><circle cx="32" cy="104" r="7" fill="#099ad9"/><text x="50" y="108" fill="#10435f" font-size="13" font-weight="600">Dashboard</text><g fill="#5a6b7d" font-size="13"><text x="50" y="158">Chatbots</text><circle cx="32" cy="154" r="6" fill="none" stroke="#94a8bd" stroke-width="1.5"/><text x="50" y="198">Inbox</text><rect width="22" height="16" x="184" y="186" fill="#099ad9" rx="8"/><text x="190" y="198" fill="#fff" font-size="10" font-weight="700">12</text><circle cx="32" cy="194" r="6" fill="none" stroke="#94a8bd" stroke-width="1.5"/><text x="50" y="238">Knowledge</text><circle cx="32" cy="234" r="6" fill="none" stroke="#94a8bd" stroke-width="1.5"/><text x="50" y="278">Leads</text><circle cx="32" cy="274" r="6" fill="none" stroke="#94a8bd" stroke-width="1.5"/><text x="50" y="318">Analytics</text><circle cx="32" cy="314" r="6" fill="none" stroke="#94a8bd" stroke-width="1.5"/><text x="50" y="358">Integrations</text><circle cx="32" cy="354" r="6" fill="none" stroke="#94a8bd" stroke-width="1.5"/><text x="50" y="398">Settings</text><circle cx="32" cy="394" r="6" fill="none" stroke="#94a8bd" stroke-width="1.5"/></g><rect width="192" height="92" x="14" y="1080" fill="#f1f7fc" stroke="#e1ebf3" rx="14"/><text x="28" y="1108" fill="#10435f" font-size="11" font-weight="700">PRO PLAN</text><text x="28" y="1130" fill="#5a6b7d" font-size="11">12,480 of 25,000</text><text x="28" y="1146" fill="#5a6b7d" font-size="11">conversations used</text><rect width="164" height="6" x="28" y="1154" fill="#e1ebf3" rx="3"/><rect width="82" height="6" x="28" y="1154" fill="url(#b)" rx="3"/><text x="252" y="112" fill="#0b1d2d" font-size="26" font-weight="700">Good afternoon, Alex</text><text x="252" y="138" fill="#5a6b7d" font-size="13">Here&apos;s what your chatbots handled today</text><rect width="180" height="40" x="900" y="92" fill="#fff" stroke="#e1ebf3" rx="20"/><text x="918" y="116" fill="#5a6b7d" font-size="12">Last 24 hours ▾</text><rect width="172" height="40" x="1100" y="92" fill="#099ad9" rx="20"/><text x="1118" y="116" fill="#fff" font-size="12" font-weight="600">+ New chatbot</text><rect width="244" height="128" x="252" y="170" fill="#fff" stroke="#e1ebf3" rx="20"/><text x="272" y="200" fill="#5a6b7d" font-size="11" font-weight="600" letter-spacing=".6">CONVERSATIONS TODAY</text><text x="272" y="246" fill="#0b1d2d" font-size="34" font-weight="700">1,247</text><text x="272" y="270" fill="#16a34a" font-size="12">▲ 18% vs yesterday</text><rect width="244" height="128" x="512" y="170" fill="#fff" stroke="#e1ebf3" rx="20"/><text x="532" y="200" fill="#5a6b7d" font-size="11" font-weight="600" letter-spacing=".6">AUTO-RESOLVED</text><text x="532" y="246" fill="#0b1d2d" font-size="34" font-weight="700">89.4%</text><text x="532" y="270" fill="#16a34a" font-size="12">▲ 4.2% this week</text><rect width="244" height="128" x="772" y="170" fill="#fff" stroke="#e1ebf3" rx="20"/><text x="792" y="200" fill="#5a6b7d" font-size="11" font-weight="600" letter-spacing=".6">AVG RESPONSE</text><text x="792" y="246" fill="#0b1d2d" font-size="34" font-weight="700">0.8s</text><text x="792" y="270" fill="#5a6b7d" font-size="12">faster than 99% of stores</text><rect width="240" height="128" x="1032" y="170" fill="#fff" stroke="#e1ebf3" rx="20"/><text x="1052" y="200" fill="#5a6b7d" font-size="11" font-weight="600" letter-spacing=".6">NEW LEADS</text><text x="1052" y="246" fill="#0b1d2d" font-size="34" font-weight="700">38</text><text x="1052" y="270" fill="#16a34a" font-size="12">▲ 12 captured today</text><rect width="600" height="320" x="252" y="320" fill="#fff" stroke="#e1ebf3" rx="20"/><text x="272" y="354" fill="#0b1d2d" font-size="15" font-weight="700">Conversation volume</text><text x="272" y="374" fill="#5a6b7d" font-size="12">Hourly — last 24 hours</text><path stroke="#eef4f9" d="M272 600h560M272 540h560M272 480h560M272 420h560"/><path fill="none" stroke="#099ad9" stroke-linecap="round" stroke-width="3" d="M272 560q50-20 100-50t100-50 100-30q50-18 100 10t100 20 60-40"/><path fill="#099ad9" d="M272 560q50-20 100-50t100-50 100-30q50-18 100 10t100 20 60-40v180H272Z" opacity=".08"/><circle cx="572" cy="430" r="6" fill="#fff" stroke="#099ad9" stroke-width="3"/><rect width="120" height="36" x="540" y="386" fill="#0b1d2d" rx="10"/><text x="555" y="402" fill="#94a8bd" font-size="10">14:00 — 92 chats</text><text x="555" y="416" fill="#fff" font-size="11" font-weight="700">Peak hour today</text><g fill="#94a8bd" font-size="10"><text x="272" y="618">00:00</text><text x="372" y="618">06:00</text><text x="472" y="618">10:00</text><text x="572" y="618">14:00</text><text x="672" y="618">18:00</text><text x="772" y="618">22:00</text></g><rect width="400" height="540" x="872" y="320" fill="#fff" stroke="#e1ebf3" rx="24"/><rect width="400" height="76" x="872" y="320" fill="url(#b)" rx="24"/><path fill="url(#b)" d="M872 370h400v26H872z"/><circle cx="906" cy="358" r="20" fill="#fff"/><text x="897" y="364" font-size="18">🤖</text><text x="938" y="350" fill="#fff" font-size="14" font-weight="700">Aria · Nordic Bloom</text><text x="938" y="368" fill="#cfeefb" font-size="11">● Online · replies instantly</text><rect width="240" height="60" x="892" y="416" fill="#f1f7fc" rx="16"/><text x="908" y="438" fill="#0b1d2d" font-size="12">Hi! Do you ship to Sweden,</text><text x="908" y="456" fill="#0b1d2d" font-size="12">and how long does it take?</text><text x="908" y="490" fill="#94a8bd" font-size="10">Anna · 2 min ago</text><rect width="240" height="76" x="1012" y="510" fill="#099ad9" rx="16"/><text x="1028" y="534" fill="#fff" font-size="12">Yes, we ship across the EU 🇪🇺</text><text x="1028" y="552" fill="#fff" font-size="12">Sweden orders arrive in 3–5</text><text x="1028" y="570" fill="#fff" font-size="12">business days. Free over €60.</text><text x="1028" y="600" fill="#94a8bd" font-size="10">Aria · just now</text><rect width="200" height="44" x="892" y="620" fill="#f1f7fc" rx="14"/><text x="908" y="646" fill="#0b1d2d" font-size="12">Perfect — what&apos;s the return</text><text x="908" y="662" fill="#0b1d2d" font-size="12">window?</text><rect width="240" height="76" x="1012" y="690" fill="#099ad9" rx="16"/><text x="1028" y="714" fill="#fff" font-size="12">30 days, no questions asked.</text><text x="1028" y="732" fill="#fff" font-size="12">I can email you a return label</text><text x="1028" y="750" fill="#fff" font-size="12">— what&apos;s your order number?</text><rect width="360" height="44" x="892" y="800" fill="#f1f7fc" stroke="#e1ebf3" rx="22"/><text x="912" y="826" fill="#94a8bd" font-size="12">Type your message…</text><circle cx="1232" cy="822" r="14" fill="#099ad9"/><text x="1226" y="826" fill="#fff" font-size="11">➤</text><rect width="600" height="488" x="252" y="660" fill="#fff" stroke="#e1ebf3" rx="20"/><text x="272" y="694" fill="#0b1d2d" font-size="15" font-weight="700">Recent conversations</text><text x="780" y="694" fill="#099ad9" font-size="12" font-weight="600">View all →</text><g font-size="13"><path stroke="#eef4f9" d="M272 724h560"/><circle cx="296" cy="752" r="18" fill="#fde8e8"/><text x="288" y="757" fill="#9b3030" font-weight="700">EM</text><text x="328" y="748" fill="#0b1d2d" font-weight="600">Emma Lindqvist</text><text x="328" y="768" fill="#5a6b7d" font-size="11">&quot;Where&apos;s my order #4821?&quot; — answered with tracking</text><rect width="56" height="22" x="700" y="738" fill="#e3f2fb" rx="11"/><text x="712" y="753" fill="#10435f" font-size="10" font-weight="700">AI · 3s</text><text x="784" y="754" fill="#94a8bd" font-size="11">2m ago</text><path stroke="#eef4f9" d="M272 784h560"/><circle cx="296" cy="812" r="18" fill="#e0f0e7"/><text x="289" y="817" fill="#1f6f47" font-weight="700">JT</text><text x="328" y="808" fill="#0b1d2d" font-weight="600">Julia Thomsen</text><text x="328" y="828" fill="#5a6b7d" font-size="11">&quot;Need a return label&quot; — handled, label emailed</text><rect width="56" height="22" x="700" y="798" fill="#e3f2fb" rx="11"/><text x="712" y="813" fill="#10435f" font-size="10" font-weight="700">AI · 5s</text><text x="784" y="814" fill="#94a8bd" font-size="11">4m ago</text><path stroke="#eef4f9" d="M272 844h560"/><circle cx="296" cy="872" r="18" fill="#fff4dc"/><text x="288" y="877" fill="#7a5108" font-weight="700">MO</text><text x="328" y="868" fill="#0b1d2d" font-weight="600">Marcus Olsen</text><text x="328" y="888" fill="#5a6b7d" font-size="11">&quot;Bulk pricing for 200 units?&quot; — escalated to Sales</text><rect width="86" height="22" x="700" y="858" fill="#fef3e3" rx="11"/><text x="712" y="873" fill="#7a5108" font-size="10" font-weight="700">HUMAN · You</text><text x="784" y="874" fill="#94a8bd" font-size="11">9m ago</text><path stroke="#eef4f9" d="M272 904h560"/><circle cx="296" cy="932" r="18" fill="#e8e6fb"/><text x="288" y="937" fill="#3a2a8c" font-weight="700">PB</text><text x="328" y="928" fill="#0b1d2d" font-weight="600">Pia Bergström</text><text x="328" y="948" fill="#5a6b7d" font-size="11">&quot;Does the Linen Dress run small?&quot; — sized + recommended</text><rect width="56" height="22" x="700" y="918" fill="#e3f2fb" rx="11"/><text x="712" y="933" fill="#10435f" font-size="10" font-weight="700">AI · 2s</text><text x="784" y="934" fill="#94a8bd" font-size="11">14m ago</text><path stroke="#eef4f9" d="M272 964h560"/><circle cx="296" cy="992" r="18" fill="#dbeefb"/><text x="288" y="997" fill="#10435f" font-weight="700">SK</text><text x="328" y="988" fill="#0b1d2d" font-weight="600">Sara Korhonen</text><text x="328" y="1008" fill="#5a6b7d" font-size="11">&quot;Lead captured — 15% off code sent&quot; → email opted-in</text><rect width="76" height="22" x="700" y="978" fill="#e0f6e8" rx="11"/><text x="712" y="993" fill="#1f6f47" font-size="10" font-weight="700">LEAD ✓</text><text x="784" y="994" fill="#94a8bd" font-size="11">21m ago</text><path stroke="#eef4f9" d="M272 1024h560"/><circle cx="296" cy="1052" r="18" fill="#fde8e8"/><text x="288" y="1057" fill="#9b3030" font-weight="700">RH</text><text x="328" y="1048" fill="#0b1d2d" font-weight="600">Rasmus Holm</text><text x="328" y="1068" fill="#5a6b7d" font-size="11">&quot;Shipping to Norway?&quot; — confirmed, 4–6 days, €8</text><rect width="56" height="22" x="700" y="1038" fill="#e3f2fb" rx="11"/><text x="712" y="1053" fill="#10435f" font-size="10" font-weight="700">AI · 1s</text><text x="784" y="1054" fill="#94a8bd" font-size="11">28m ago</text></g></svg>