<svg xmlns="http://www.w3.org/2000/svg" viewBox="0 0 1296 1200" font-family="Inter, system-ui, -apple-system, sans-serif">
  <defs>
    <linearGradient id="bg" x1="0" y1="0" x2="0" y2="1">
      <stop offset="0%" stop-color="#061322"/>
      <stop offset="100%" stop-color="#0a1f30"/>
    </linearGradient>
    <linearGradient id="accentBar" x1="0" y1="0" x2="1" y2="0">
      <stop offset="0%" stop-color="#1bb1d4"/>
      <stop offset="100%" stop-color="#5dd3df"/>
    </linearGradient>
  </defs>
  <rect width="1296" height="1200" fill="url(#bg)"/>

  <!-- Top bar -->
  <rect x="0" y="0" width="1296" height="64" fill="#0b1d2d"/>
  <line x1="0" y1="64" x2="1296" y2="64" stroke="#142c41" stroke-width="1"/>
  <rect x="24" y="20" width="24" height="24" rx="7" fill="url(#accentBar)"/>
  <text x="58" y="38" font-size="17" font-weight="700" fill="#ffffff">MoAssist</text>
  <rect x="180" y="18" width="320" height="28" rx="14" fill="#10263a" stroke="#1a334a"/>
  <circle cx="200" cy="32" r="5" fill="none" stroke="#94a8bd" stroke-width="1.5"/>
  <line x1="204" y1="36" x2="208" y2="40" stroke="#94a8bd" stroke-width="1.5"/>
  <text x="218" y="36" font-size="12" fill="#7a90a8">Search conversations, customers, docs…</text>
  <circle cx="1220" cy="32" r="14" fill="#10263a"/>
  <text x="1216" y="36" font-size="13">🔔</text>
  <circle cx="1260" cy="32" r="16" fill="#1bb1d4"/>
  <text x="1252" y="37" font-size="13" font-weight="700" fill="#0b1d2d">AB</text>

  <!-- Sidebar -->
  <rect x="0" y="64" width="220" height="1136" fill="#0b1d2d"/>
  <line x1="220" y1="64" x2="220" y2="1200" stroke="#142c41"/>
  <rect x="14" y="86" width="192" height="36" rx="10" fill="#112b3f"/>
  <circle cx="32" cy="104" r="7" fill="#5dd3df"/>
  <text x="50" y="108" font-size="13" font-weight="600" fill="#def1f2">Dashboard</text>
  <g font-size="13" fill="#94a8bd">
    <text x="50" y="158">Chatbots</text>
    <circle cx="32" cy="154" r="6" fill="none" stroke="#5a7388" stroke-width="1.5"/>
    <text x="50" y="198">Inbox</text>
    <rect x="184" y="186" width="22" height="16" rx="8" fill="#5dd3df"/>
    <text x="190" y="198" font-size="10" font-weight="700" fill="#0b1d2d">12</text>
    <circle cx="32" cy="194" r="6" fill="none" stroke="#5a7388" stroke-width="1.5"/>
    <text x="50" y="238">Knowledge</text>
    <circle cx="32" cy="234" r="6" fill="none" stroke="#5a7388" stroke-width="1.5"/>
    <text x="50" y="278">Leads</text>
    <circle cx="32" cy="274" r="6" fill="none" stroke="#5a7388" stroke-width="1.5"/>
    <text x="50" y="318">Analytics</text>
    <circle cx="32" cy="314" r="6" fill="none" stroke="#5a7388" stroke-width="1.5"/>
    <text x="50" y="358">Integrations</text>
    <circle cx="32" cy="354" r="6" fill="none" stroke="#5a7388" stroke-width="1.5"/>
    <text x="50" y="398">Settings</text>
    <circle cx="32" cy="394" r="6" fill="none" stroke="#5a7388" stroke-width="1.5"/>
  </g>
  <rect x="14" y="1080" width="192" height="92" rx="14" fill="#10263a" stroke="#1a334a"/>
  <text x="28" y="1108" font-size="11" font-weight="700" fill="#5dd3df">PRO PLAN</text>
  <text x="28" y="1130" font-size="11" fill="#94a8bd">12,480 of 25,000</text>
  <text x="28" y="1146" font-size="11" fill="#94a8bd">conversations used</text>
  <rect x="28" y="1154" width="164" height="6" rx="3" fill="#1a334a"/>
  <rect x="28" y="1154" width="82" height="6" rx="3" fill="url(#accentBar)"/>

  <!-- Content -->
  <text x="252" y="112" font-size="26" font-weight="700" fill="#ffffff">Good afternoon, Alex</text>
  <text x="252" y="138" font-size="13" fill="#94a8bd">Here's what your chatbots handled today</text>
  <rect x="900" y="92" width="180" height="40" rx="20" fill="#0b1d2d" stroke="#1a334a"/>
  <text x="918" y="116" font-size="12" fill="#94a8bd">Last 24 hours ▾</text>
  <rect x="1100" y="92" width="172" height="40" rx="20" fill="#1bb1d4"/>
  <text x="1118" y="116" font-size="12" font-weight="600" fill="#0b1d2d">+ New chatbot</text>

  <!-- Metric cards -->
  <g>
    <rect x="252" y="170" width="244" height="128" rx="20" fill="#0b1d2d" stroke="#1a334a"/>
    <text x="272" y="200" font-size="11" font-weight="600" fill="#94a8bd" letter-spacing="0.6">CONVERSATIONS TODAY</text>
    <text x="272" y="246" font-size="34" font-weight="700" fill="#ffffff">1,247</text>
    <text x="272" y="270" font-size="12" fill="#34d399">▲ 18% vs yesterday</text>

    <rect x="512" y="170" width="244" height="128" rx="20" fill="#0b1d2d" stroke="#1a334a"/>
    <text x="532" y="200" font-size="11" font-weight="600" fill="#94a8bd" letter-spacing="0.6">AUTO-RESOLVED</text>
    <text x="532" y="246" font-size="34" font-weight="700" fill="#ffffff">89.4%</text>
    <text x="532" y="270" font-size="12" fill="#34d399">▲ 4.2% this week</text>

    <rect x="772" y="170" width="244" height="128" rx="20" fill="#0b1d2d" stroke="#1a334a"/>
    <text x="792" y="200" font-size="11" font-weight="600" fill="#94a8bd" letter-spacing="0.6">AVG RESPONSE</text>
    <text x="792" y="246" font-size="34" font-weight="700" fill="#ffffff">0.8s</text>
    <text x="792" y="270" font-size="12" fill="#94a8bd">faster than 99% of stores</text>

    <rect x="1032" y="170" width="240" height="128" rx="20" fill="#0b1d2d" stroke="#1a334a"/>
    <text x="1052" y="200" font-size="11" font-weight="600" fill="#94a8bd" letter-spacing="0.6">NEW LEADS</text>
    <text x="1052" y="246" font-size="34" font-weight="700" fill="#ffffff">38</text>
    <text x="1052" y="270" font-size="12" fill="#34d399">▲ 12 captured today</text>
  </g>

  <!-- Chart -->
  <rect x="252" y="320" width="600" height="320" rx="20" fill="#0b1d2d" stroke="#1a334a"/>
  <text x="272" y="354" font-size="15" font-weight="700" fill="#ffffff">Conversation volume</text>
  <text x="272" y="374" font-size="12" fill="#94a8bd">Hourly — last 24 hours</text>
  <g>
    <line x1="272" y1="600" x2="832" y2="600" stroke="#142c41"/>
    <line x1="272" y1="540" x2="832" y2="540" stroke="#142c41"/>
    <line x1="272" y1="480" x2="832" y2="480" stroke="#142c41"/>
    <line x1="272" y1="420" x2="832" y2="420" stroke="#142c41"/>
    <path d="M272 560 Q322 540 372 510 T472 460 T572 430 Q622 412 672 440 T772 460 T832 420" fill="none" stroke="#5dd3df" stroke-width="3" stroke-linecap="round"/>
    <path d="M272 560 Q322 540 372 510 T472 460 T572 430 Q622 412 672 440 T772 460 T832 420 L832 600 L272 600 Z" fill="#5dd3df" opacity="0.10"/>
    <circle cx="572" cy="430" r="6" fill="#0b1d2d" stroke="#5dd3df" stroke-width="3"/>
    <rect x="540" y="386" width="120" height="36" rx="10" fill="#142c41"/>
    <text x="555" y="402" font-size="10" fill="#94a8bd">14:00 — 92 chats</text>
    <text x="555" y="416" font-size="11" font-weight="700" fill="#ffffff">Peak hour today</text>
  </g>
  <g font-size="10" fill="#7a90a8">
    <text x="272" y="618">00:00</text>
    <text x="372" y="618">06:00</text>
    <text x="472" y="618">10:00</text>
    <text x="572" y="618">14:00</text>
    <text x="672" y="618">18:00</text>
    <text x="772" y="618">22:00</text>
  </g>

  <!-- Live chat widget preview -->
  <rect x="872" y="320" width="400" height="540" rx="24" fill="#0b1d2d" stroke="#1a334a"/>
  <rect x="872" y="320" width="400" height="76" rx="24" fill="url(#accentBar)"/>
  <rect x="872" y="370" width="400" height="26" fill="url(#accentBar)"/>
  <circle cx="906" cy="358" r="20" fill="#0b1d2d"/>
  <text x="897" y="364" font-size="18">🤖</text>
  <text x="938" y="350" font-size="14" font-weight="700" fill="#0b1d2d">Aria · Nordic Bloom</text>
  <text x="938" y="368" font-size="11" fill="#0e3247">● Online · replies instantly</text>

  <g>
    <rect x="892" y="416" width="240" height="60" rx="16" fill="#10263a"/>
    <text x="908" y="438" font-size="12" fill="#def1f2">Hi! Do you ship to Sweden,</text>
    <text x="908" y="456" font-size="12" fill="#def1f2">and how long does it take?</text>
    <text x="908" y="490" font-size="10" fill="#7a90a8">Anna · 2 min ago</text>

    <rect x="1012" y="510" width="240" height="76" rx="16" fill="#1bb1d4"/>
    <text x="1028" y="534" font-size="12" fill="#0b1d2d">Yes, we ship across the EU 🇪🇺</text>
    <text x="1028" y="552" font-size="12" fill="#0b1d2d">Sweden orders arrive in 3–5</text>
    <text x="1028" y="570" font-size="12" fill="#0b1d2d">business days. Free over €60.</text>
    <text x="1028" y="600" font-size="10" fill="#7a90a8">Aria · just now</text>

    <rect x="892" y="620" width="200" height="44" rx="14" fill="#10263a"/>
    <text x="908" y="646" font-size="12" fill="#def1f2">Perfect — what's the return</text>
    <text x="908" y="662" font-size="12" fill="#def1f2">window?</text>

    <rect x="1012" y="690" width="240" height="76" rx="16" fill="#1bb1d4"/>
    <text x="1028" y="714" font-size="12" fill="#0b1d2d">30 days, no questions asked.</text>
    <text x="1028" y="732" font-size="12" fill="#0b1d2d">I can email you a return label</text>
    <text x="1028" y="750" font-size="12" fill="#0b1d2d">— what's your order number?</text>
  </g>

  <rect x="892" y="800" width="360" height="44" rx="22" fill="#10263a" stroke="#1a334a"/>
  <text x="912" y="826" font-size="12" fill="#7a90a8">Type your message…</text>
  <circle cx="1232" cy="822" r="14" fill="#5dd3df"/>
  <text x="1226" y="826" font-size="11" fill="#0b1d2d">➤</text>

  <!-- Recent conversations -->
  <rect x="252" y="660" width="600" height="488" rx="20" fill="#0b1d2d" stroke="#1a334a"/>
  <text x="272" y="694" font-size="15" font-weight="700" fill="#ffffff">Recent conversations</text>
  <text x="780" y="694" font-size="12" fill="#5dd3df" font-weight="600">View all →</text>

  <g font-size="13">
    <line x1="272" y1="724" x2="832" y2="724" stroke="#142c41"/>
    <circle cx="296" cy="752" r="18" fill="#3b1f1f"/>
    <text x="288" y="757" font-size="13" font-weight="700" fill="#fda4af">EM</text>
    <text x="328" y="748" font-weight="600" fill="#ffffff">Emma Lindqvist</text>
    <text x="328" y="768" font-size="11" fill="#94a8bd">"Where's my order #4821?" — answered with tracking</text>
    <rect x="700" y="738" width="56" height="22" rx="11" fill="#112b3f"/>
    <text x="712" y="753" font-size="10" font-weight="700" fill="#5dd3df">AI · 3s</text>
    <text x="784" y="754" font-size="11" fill="#7a90a8">2m ago</text>

    <line x1="272" y1="784" x2="832" y2="784" stroke="#142c41"/>
    <circle cx="296" cy="812" r="18" fill="#1f3a2c"/>
    <text x="289" y="817" font-size="13" font-weight="700" fill="#86efac">JT</text>
    <text x="328" y="808" font-weight="600" fill="#ffffff">Julia Thomsen</text>
    <text x="328" y="828" font-size="11" fill="#94a8bd">"Need a return label" — handled, label emailed</text>
    <rect x="700" y="798" width="56" height="22" rx="11" fill="#112b3f"/>
    <text x="712" y="813" font-size="10" font-weight="700" fill="#5dd3df">AI · 5s</text>
    <text x="784" y="814" font-size="11" fill="#7a90a8">4m ago</text>

    <line x1="272" y1="844" x2="832" y2="844" stroke="#142c41"/>
    <circle cx="296" cy="872" r="18" fill="#3a2e1a"/>
    <text x="288" y="877" font-size="13" font-weight="700" fill="#fcd34d">MO</text>
    <text x="328" y="868" font-weight="600" fill="#ffffff">Marcus Olsen</text>
    <text x="328" y="888" font-size="11" fill="#94a8bd">"Bulk pricing for 200 units?" — escalated to Sales</text>
    <rect x="700" y="858" width="86" height="22" rx="11" fill="#3a2e1a"/>
    <text x="712" y="873" font-size="10" font-weight="700" fill="#fcd34d">HUMAN · You</text>
    <text x="784" y="874" font-size="11" fill="#7a90a8">9m ago</text>

    <line x1="272" y1="904" x2="832" y2="904" stroke="#142c41"/>
    <circle cx="296" cy="932" r="18" fill="#241e3e"/>
    <text x="288" y="937" font-size="13" font-weight="700" fill="#c4b5fd">PB</text>
    <text x="328" y="928" font-weight="600" fill="#ffffff">Pia Bergström</text>
    <text x="328" y="948" font-size="11" fill="#94a8bd">"Does the Linen Dress run small?" — sized + recommended</text>
    <rect x="700" y="918" width="56" height="22" rx="11" fill="#112b3f"/>
    <text x="712" y="933" font-size="10" font-weight="700" fill="#5dd3df">AI · 2s</text>
    <text x="784" y="934" font-size="11" fill="#7a90a8">14m ago</text>

    <line x1="272" y1="964" x2="832" y2="964" stroke="#142c41"/>
    <circle cx="296" cy="992" r="18" fill="#0e3247"/>
    <text x="288" y="997" font-size="13" font-weight="700" fill="#5dd3df">SK</text>
    <text x="328" y="988" font-weight="600" fill="#ffffff">Sara Korhonen</text>
    <text x="328" y="1008" font-size="11" fill="#94a8bd">"Lead captured — 15% off code sent" → email opted-in</text>
    <rect x="700" y="978" width="76" height="22" rx="11" fill="#1f3a2c"/>
    <text x="712" y="993" font-size="10" font-weight="700" fill="#86efac">LEAD ✓</text>
    <text x="784" y="994" font-size="11" fill="#7a90a8">21m ago</text>

    <line x1="272" y1="1024" x2="832" y2="1024" stroke="#142c41"/>
    <circle cx="296" cy="1052" r="18" fill="#3b1f1f"/>
    <text x="288" y="1057" font-size="13" font-weight="700" fill="#fda4af">RH</text>
    <text x="328" y="1048" font-weight="600" fill="#ffffff">Rasmus Holm</text>
    <text x="328" y="1068" font-size="11" fill="#94a8bd">"Shipping to Norway?" — confirmed, 4–6 days, €8</text>
    <rect x="700" y="1038" width="56" height="22" rx="11" fill="#112b3f"/>
    <text x="712" y="1053" font-size="10" font-weight="700" fill="#5dd3df">AI · 1s</text>
    <text x="784" y="1054" font-size="11" fill="#7a90a8">28m ago</text>
  </g>
</svg>
