<svg xmlns="http://www.w3.org/2000/svg" viewBox="0 0 1296 1200" font-family="Inter, system-ui, -apple-system, sans-serif">
  <defs>
    <linearGradient id="bg" x1="0" y1="0" x2="0" y2="1">
      <stop offset="0%" stop-color="#f4faff"/>
      <stop offset="100%" stop-color="#e7f1f9"/>
    </linearGradient>
    <linearGradient id="accentBar" x1="0" y1="0" x2="1" y2="0">
      <stop offset="0%" stop-color="#099ad9"/>
      <stop offset="100%" stop-color="#5dd3df"/>
    </linearGradient>
    <filter id="soft" x="-10%" y="-10%" width="120%" height="120%">
      <feGaussianBlur stdDeviation="14"/>
    </filter>
  </defs>
  <rect width="1296" height="1200" fill="url(#bg)"/>

  <!-- Top bar -->
  <rect x="0" y="0" width="1296" height="64" fill="#ffffff"/>
  <line x1="0" y1="64" x2="1296" y2="64" stroke="#e1ebf3" stroke-width="1"/>
  <rect x="24" y="20" width="24" height="24" rx="7" fill="url(#accentBar)"/>
  <text x="58" y="38" font-size="17" font-weight="700" fill="#0b1d2d">MoAssist</text>
  <rect x="180" y="18" width="320" height="28" rx="14" fill="#f1f7fc" stroke="#e1ebf3"/>
  <circle cx="200" cy="32" r="5" fill="none" stroke="#94a8bd" stroke-width="1.5"/>
  <line x1="204" y1="36" x2="208" y2="40" stroke="#94a8bd" stroke-width="1.5"/>
  <text x="218" y="36" font-size="12" fill="#94a8bd">Search conversations, customers, docs…</text>
  <circle cx="1220" cy="32" r="14" fill="#eaf4fb"/>
  <text x="1216" y="36" font-size="13">🔔</text>
  <circle cx="1260" cy="32" r="16" fill="#099ad9"/>
  <text x="1252" y="37" font-size="13" font-weight="700" fill="#ffffff">AB</text>

  <!-- Sidebar -->
  <rect x="0" y="64" width="220" height="1136" fill="#ffffff"/>
  <line x1="220" y1="64" x2="220" y2="1200" stroke="#e1ebf3"/>
  <rect x="14" y="86" width="192" height="36" rx="10" fill="#e3f2fb"/>
  <circle cx="32" cy="104" r="7" fill="#099ad9"/>
  <text x="50" y="108" font-size="13" font-weight="600" fill="#10435f">Dashboard</text>
  <g font-size="13" fill="#5a6b7d">
    <text x="50" y="158">Chatbots</text>
    <circle cx="32" cy="154" r="6" fill="none" stroke="#94a8bd" stroke-width="1.5"/>
    <text x="50" y="198">Inbox</text>
    <rect x="184" y="186" width="22" height="16" rx="8" fill="#099ad9"/>
    <text x="190" y="198" font-size="10" font-weight="700" fill="#ffffff">12</text>
    <circle cx="32" cy="194" r="6" fill="none" stroke="#94a8bd" stroke-width="1.5"/>
    <text x="50" y="238">Knowledge</text>
    <circle cx="32" cy="234" r="6" fill="none" stroke="#94a8bd" stroke-width="1.5"/>
    <text x="50" y="278">Leads</text>
    <circle cx="32" cy="274" r="6" fill="none" stroke="#94a8bd" stroke-width="1.5"/>
    <text x="50" y="318">Analytics</text>
    <circle cx="32" cy="314" r="6" fill="none" stroke="#94a8bd" stroke-width="1.5"/>
    <text x="50" y="358">Integrations</text>
    <circle cx="32" cy="354" r="6" fill="none" stroke="#94a8bd" stroke-width="1.5"/>
    <text x="50" y="398">Settings</text>
    <circle cx="32" cy="394" r="6" fill="none" stroke="#94a8bd" stroke-width="1.5"/>
  </g>
  <rect x="14" y="1080" width="192" height="92" rx="14" fill="#f1f7fc" stroke="#e1ebf3"/>
  <text x="28" y="1108" font-size="11" font-weight="700" fill="#10435f">PRO PLAN</text>
  <text x="28" y="1130" font-size="11" fill="#5a6b7d">12,480 of 25,000</text>
  <text x="28" y="1146" font-size="11" fill="#5a6b7d">conversations used</text>
  <rect x="28" y="1154" width="164" height="6" rx="3" fill="#e1ebf3"/>
  <rect x="28" y="1154" width="82" height="6" rx="3" fill="url(#accentBar)"/>

  <!-- Content -->
  <text x="252" y="112" font-size="26" font-weight="700" fill="#0b1d2d">Good afternoon, Alex</text>
  <text x="252" y="138" font-size="13" fill="#5a6b7d">Here's what your chatbots handled today</text>
  <rect x="900" y="92" width="180" height="40" rx="20" fill="#ffffff" stroke="#e1ebf3"/>
  <text x="918" y="116" font-size="12" fill="#5a6b7d">Last 24 hours ▾</text>
  <rect x="1100" y="92" width="172" height="40" rx="20" fill="#099ad9"/>
  <text x="1118" y="116" font-size="12" font-weight="600" fill="#ffffff">+ New chatbot</text>

  <!-- Metric cards -->
  <g>
    <rect x="252" y="170" width="244" height="128" rx="20" fill="#ffffff" stroke="#e1ebf3"/>
    <text x="272" y="200" font-size="11" font-weight="600" fill="#5a6b7d" letter-spacing="0.6">CONVERSATIONS TODAY</text>
    <text x="272" y="246" font-size="34" font-weight="700" fill="#0b1d2d">1,247</text>
    <text x="272" y="270" font-size="12" fill="#16a34a">▲ 18% vs yesterday</text>

    <rect x="512" y="170" width="244" height="128" rx="20" fill="#ffffff" stroke="#e1ebf3"/>
    <text x="532" y="200" font-size="11" font-weight="600" fill="#5a6b7d" letter-spacing="0.6">AUTO-RESOLVED</text>
    <text x="532" y="246" font-size="34" font-weight="700" fill="#0b1d2d">89.4%</text>
    <text x="532" y="270" font-size="12" fill="#16a34a">▲ 4.2% this week</text>

    <rect x="772" y="170" width="244" height="128" rx="20" fill="#ffffff" stroke="#e1ebf3"/>
    <text x="792" y="200" font-size="11" font-weight="600" fill="#5a6b7d" letter-spacing="0.6">AVG RESPONSE</text>
    <text x="792" y="246" font-size="34" font-weight="700" fill="#0b1d2d">0.8s</text>
    <text x="792" y="270" font-size="12" fill="#5a6b7d">faster than 99% of stores</text>

    <rect x="1032" y="170" width="240" height="128" rx="20" fill="#ffffff" stroke="#e1ebf3"/>
    <text x="1052" y="200" font-size="11" font-weight="600" fill="#5a6b7d" letter-spacing="0.6">NEW LEADS</text>
    <text x="1052" y="246" font-size="34" font-weight="700" fill="#0b1d2d">38</text>
    <text x="1052" y="270" font-size="12" fill="#16a34a">▲ 12 captured today</text>
  </g>

  <!-- Conversation volume chart -->
  <rect x="252" y="320" width="600" height="320" rx="20" fill="#ffffff" stroke="#e1ebf3"/>
  <text x="272" y="354" font-size="15" font-weight="700" fill="#0b1d2d">Conversation volume</text>
  <text x="272" y="374" font-size="12" fill="#5a6b7d">Hourly — last 24 hours</text>
  <g>
    <line x1="272" y1="600" x2="832" y2="600" stroke="#eef4f9"/>
    <line x1="272" y1="540" x2="832" y2="540" stroke="#eef4f9"/>
    <line x1="272" y1="480" x2="832" y2="480" stroke="#eef4f9"/>
    <line x1="272" y1="420" x2="832" y2="420" stroke="#eef4f9"/>
    <path d="M272 560 Q322 540 372 510 T472 460 T572 430 Q622 412 672 440 T772 460 T832 420" fill="none" stroke="#099ad9" stroke-width="3" stroke-linecap="round"/>
    <path d="M272 560 Q322 540 372 510 T472 460 T572 430 Q622 412 672 440 T772 460 T832 420 L832 600 L272 600 Z" fill="#099ad9" opacity="0.08"/>
    <circle cx="572" cy="430" r="6" fill="#ffffff" stroke="#099ad9" stroke-width="3"/>
    <rect x="540" y="386" width="120" height="36" rx="10" fill="#0b1d2d"/>
    <text x="555" y="402" font-size="10" fill="#94a8bd">14:00 — 92 chats</text>
    <text x="555" y="416" font-size="11" font-weight="700" fill="#ffffff">Peak hour today</text>
  </g>
  <g font-size="10" fill="#94a8bd">
    <text x="272" y="618">00:00</text>
    <text x="372" y="618">06:00</text>
    <text x="472" y="618">10:00</text>
    <text x="572" y="618">14:00</text>
    <text x="672" y="618">18:00</text>
    <text x="772" y="618">22:00</text>
  </g>

  <!-- Live chat widget preview -->
  <rect x="872" y="320" width="400" height="540" rx="24" fill="#ffffff" stroke="#e1ebf3"/>
  <rect x="872" y="320" width="400" height="76" rx="24" fill="url(#accentBar)"/>
  <rect x="872" y="370" width="400" height="26" fill="url(#accentBar)"/>
  <circle cx="906" cy="358" r="20" fill="#ffffff"/>
  <text x="897" y="364" font-size="18">🤖</text>
  <text x="938" y="350" font-size="14" font-weight="700" fill="#ffffff">Aria · Nordic Bloom</text>
  <text x="938" y="368" font-size="11" fill="#cfeefb">● Online · replies instantly</text>

  <!-- Chat messages -->
  <g>
    <rect x="892" y="416" width="240" height="60" rx="16" fill="#f1f7fc"/>
    <text x="908" y="438" font-size="12" fill="#0b1d2d">Hi! Do you ship to Sweden,</text>
    <text x="908" y="456" font-size="12" fill="#0b1d2d">and how long does it take?</text>
    <text x="908" y="490" font-size="10" fill="#94a8bd">Anna · 2 min ago</text>

    <rect x="1012" y="510" width="240" height="76" rx="16" fill="#099ad9"/>
    <text x="1028" y="534" font-size="12" fill="#ffffff">Yes, we ship across the EU 🇪🇺</text>
    <text x="1028" y="552" font-size="12" fill="#ffffff">Sweden orders arrive in 3–5</text>
    <text x="1028" y="570" font-size="12" fill="#ffffff">business days. Free over €60.</text>
    <text x="1028" y="600" font-size="10" fill="#94a8bd">Aria · just now</text>

    <rect x="892" y="620" width="200" height="44" rx="14" fill="#f1f7fc"/>
    <text x="908" y="646" font-size="12" fill="#0b1d2d">Perfect — what's the return</text>
    <text x="908" y="662" font-size="12" fill="#0b1d2d">window?</text>

    <rect x="1012" y="690" width="240" height="76" rx="16" fill="#099ad9"/>
    <text x="1028" y="714" font-size="12" fill="#ffffff">30 days, no questions asked.</text>
    <text x="1028" y="732" font-size="12" fill="#ffffff">I can email you a return label</text>
    <text x="1028" y="750" font-size="12" fill="#ffffff">— what's your order number?</text>
  </g>

  <!-- Composer -->
  <rect x="892" y="800" width="360" height="44" rx="22" fill="#f1f7fc" stroke="#e1ebf3"/>
  <text x="912" y="826" font-size="12" fill="#94a8bd">Type your message…</text>
  <circle cx="1232" cy="822" r="14" fill="#099ad9"/>
  <text x="1226" y="826" font-size="11" fill="#ffffff">➤</text>

  <!-- Recent conversations -->
  <rect x="252" y="660" width="600" height="488" rx="20" fill="#ffffff" stroke="#e1ebf3"/>
  <text x="272" y="694" font-size="15" font-weight="700" fill="#0b1d2d">Recent conversations</text>
  <text x="780" y="694" font-size="12" fill="#099ad9" font-weight="600">View all →</text>

  <g font-size="13">
    <!-- row 1 -->
    <line x1="272" y1="724" x2="832" y2="724" stroke="#eef4f9"/>
    <circle cx="296" cy="752" r="18" fill="#fde8e8"/>
    <text x="288" y="757" font-size="13" font-weight="700" fill="#9b3030">EM</text>
    <text x="328" y="748" font-weight="600" fill="#0b1d2d">Emma Lindqvist</text>
    <text x="328" y="768" font-size="11" fill="#5a6b7d">"Where's my order #4821?" — answered with tracking</text>
    <rect x="700" y="738" width="56" height="22" rx="11" fill="#e3f2fb"/>
    <text x="712" y="753" font-size="10" font-weight="700" fill="#10435f">AI · 3s</text>
    <text x="784" y="754" font-size="11" fill="#94a8bd">2m ago</text>

    <line x1="272" y1="784" x2="832" y2="784" stroke="#eef4f9"/>
    <circle cx="296" cy="812" r="18" fill="#e0f0e7"/>
    <text x="289" y="817" font-size="13" font-weight="700" fill="#1f6f47">JT</text>
    <text x="328" y="808" font-weight="600" fill="#0b1d2d">Julia Thomsen</text>
    <text x="328" y="828" font-size="11" fill="#5a6b7d">"Need a return label" — handled, label emailed</text>
    <rect x="700" y="798" width="56" height="22" rx="11" fill="#e3f2fb"/>
    <text x="712" y="813" font-size="10" font-weight="700" fill="#10435f">AI · 5s</text>
    <text x="784" y="814" font-size="11" fill="#94a8bd">4m ago</text>

    <line x1="272" y1="844" x2="832" y2="844" stroke="#eef4f9"/>
    <circle cx="296" cy="872" r="18" fill="#fff4dc"/>
    <text x="288" y="877" font-size="13" font-weight="700" fill="#7a5108">MO</text>
    <text x="328" y="868" font-weight="600" fill="#0b1d2d">Marcus Olsen</text>
    <text x="328" y="888" font-size="11" fill="#5a6b7d">"Bulk pricing for 200 units?" — escalated to Sales</text>
    <rect x="700" y="858" width="86" height="22" rx="11" fill="#fef3e3"/>
    <text x="712" y="873" font-size="10" font-weight="700" fill="#7a5108">HUMAN · You</text>
    <text x="784" y="874" font-size="11" fill="#94a8bd">9m ago</text>

    <line x1="272" y1="904" x2="832" y2="904" stroke="#eef4f9"/>
    <circle cx="296" cy="932" r="18" fill="#e8e6fb"/>
    <text x="288" y="937" font-size="13" font-weight="700" fill="#3a2a8c">PB</text>
    <text x="328" y="928" font-weight="600" fill="#0b1d2d">Pia Bergström</text>
    <text x="328" y="948" font-size="11" fill="#5a6b7d">"Does the Linen Dress run small?" — sized + recommended</text>
    <rect x="700" y="918" width="56" height="22" rx="11" fill="#e3f2fb"/>
    <text x="712" y="933" font-size="10" font-weight="700" fill="#10435f">AI · 2s</text>
    <text x="784" y="934" font-size="11" fill="#94a8bd">14m ago</text>

    <line x1="272" y1="964" x2="832" y2="964" stroke="#eef4f9"/>
    <circle cx="296" cy="992" r="18" fill="#dbeefb"/>
    <text x="288" y="997" font-size="13" font-weight="700" fill="#10435f">SK</text>
    <text x="328" y="988" font-weight="600" fill="#0b1d2d">Sara Korhonen</text>
    <text x="328" y="1008" font-size="11" fill="#5a6b7d">"Lead captured — 15% off code sent" → email opted-in</text>
    <rect x="700" y="978" width="76" height="22" rx="11" fill="#e0f6e8"/>
    <text x="712" y="993" font-size="10" font-weight="700" fill="#1f6f47">LEAD ✓</text>
    <text x="784" y="994" font-size="11" fill="#94a8bd">21m ago</text>

    <line x1="272" y1="1024" x2="832" y2="1024" stroke="#eef4f9"/>
    <circle cx="296" cy="1052" r="18" fill="#fde8e8"/>
    <text x="288" y="1057" font-size="13" font-weight="700" fill="#9b3030">RH</text>
    <text x="328" y="1048" font-weight="600" fill="#0b1d2d">Rasmus Holm</text>
    <text x="328" y="1068" font-size="11" fill="#5a6b7d">"Shipping to Norway?" — confirmed, 4–6 days, €8</text>
    <rect x="700" y="1038" width="56" height="22" rx="11" fill="#e3f2fb"/>
    <text x="712" y="1053" font-size="10" font-weight="700" fill="#10435f">AI · 1s</text>
    <text x="784" y="1054" font-size="11" fill="#94a8bd">28m ago</text>
  </g>
</svg>
